<svg version="1.1" xmlns="http://www.w3.org/2000/svg" viewBox="0 0 736.3777717936209 1590.3271945293623" width="736.3777717936209" height="1590.3271945293623">
  <!-- svg-source:excalidraw -->
  
  <defs>
    <style class="style-fonts">
      @font-face {
        font-family: "Virgil";
        src: url("https://excalidraw.com/Virgil.woff2");
      }
      @font-face {
        font-family: "Cascadia";
        src: url("https://excalidraw.com/Cascadia.woff2");
      }
      @font-face {
        font-family: "Assistant";
        src: url("https://app.excalidraw.com//dist/excalidraw-assets/Assistant-Regular.woff2");
      }
    </style>
    
  </defs>
  <rect x="0" y="0" width="736.3777717936209" height="1590.3271945293623" fill="#ffffff"></rect><g stroke-linecap="round" transform="translate(283.58219240181916 312.3969273609523) rotate(0 78.5 78.5)"><path d="M21.43 25.26 C21.43 25.26, 21.43 25.26, 21.43 25.26 M21.43 25.26 C21.43 25.26, 21.43 25.26, 21.43 25.26 M7.4 47.5 C17.35 39.92, 25.43 28.7, 35.61 15.05 M7.4 47.5 C18.62 35.65, 30.28 21.34, 35.61 15.05 M4.51 56.92 C15.31 43.49, 27.88 28.97, 49.12 5.6 M4.51 56.92 C19.91 37.68, 35.09 21.25, 49.12 5.6 M3.59 64.07 C20.48 44.34, 40.76 22.4, 55.42 4.45 M3.59 64.07 C15.75 49.47, 29.15 34.66, 55.42 4.45 M2.68 71.23 C16.92 57.31, 31.21 38.92, 62.38 2.55 M2.68 71.23 C19.43 50.96, 37.33 31.48, 62.38 2.55 M1.76 78.38 C15.8 57.94, 34.65 39.48, 68.68 1.4 M1.76 78.38 C17.51 60.38, 31.46 44.24, 68.68 1.4 M1.5 84.78 C20.27 65.17, 37.63 43.08, 74.97 0.25 M1.5 84.78 C15.8 66.97, 30.74 50.16, 74.97 0.25 M2.55 89.66 C31.12 57.28, 60.38 25.4, 80.62 -0.15 M2.55 89.66 C20.19 69.8, 37.18 50.74, 80.62 -0.15 M3.6 94.55 C23.59 74.54, 40.16 53.2, 84.95 0.97 M3.6 94.55 C32.33 60.99, 61.77 27.39, 84.95 0.97 M4.65 99.44 C36.8 61.78, 71.9 21.36, 89.28 2.08 M4.65 99.44 C24.31 77.02, 43.13 56.23, 89.28 2.08 M6.36 103.58 C31.2 75.96, 50.35 53.87, 93.61 3.2 M6.36 103.58 C24.16 79.41, 45.51 58.41, 93.61 3.2 M7.41 108.46 C25.2 85.54, 46.97 64.12, 98.6 3.56 M7.41 108.46 C41.95 67.66, 78.43 25.79, 98.6 3.56 M8.46 113.35 C30.2 85.13, 54.12 61.34, 102.93 4.67 M8.46 113.35 C29.22 87.99, 51.43 63.11, 102.93 4.67 M10.16 117.49 C47.98 75.12, 82.36 37.8, 107.26 5.79 M10.16 117.49 C45.45 77.34, 80.71 35.31, 107.26 5.79 M13.18 120.11 C35.99 95.63, 56.34 69.58, 111.59 6.9 M13.18 120.11 C33.94 94.98, 55.26 69.28, 111.59 6.9 M15.54 123.49 C39.74 96.63, 63.09 69.51, 115.27 8.77 M15.54 123.49 C53.23 77.35, 92.29 32.11, 115.27 8.77 M18.56 126.11 C47.82 95.14, 72.93 62.53, 118.28 11.4 M18.56 126.11 C56.92 81.75, 94.55 37.33, 118.28 11.4 M20.93 129.49 C46.18 101.5, 70.37 74.96, 121.3 14.02 M20.93 129.49 C61.03 84.43, 99.31 38.45, 121.3 14.02 M23.95 132.12 C47.93 104.93, 70.23 78.19, 124.98 15.89 M23.95 132.12 C60.45 90.77, 98.54 49.15, 124.98 15.89 M26.96 134.74 C48.8 109.98, 71.07 85.72, 128 18.52 M26.96 134.74 C53.12 103.89, 80.45 73.45, 128 18.52 M29.33 138.12 C66.18 94.83, 102.31 52.48, 131.02 21.14 M29.33 138.12 C60.39 102.24, 91.61 64.93, 131.02 21.14 M32.35 140.74 C61.52 109.54, 89.66 75.13, 134.03 23.76 M32.35 140.74 C52.21 117.47, 72.39 94.82, 134.03 23.76 M36.02 142.61 C61.65 115.94, 86.62 86.48, 137.05 26.39 M36.02 142.61 C58.25 117.78, 79.4 93.08, 137.05 26.39 M39.7 144.48 C73.51 102.69, 108.93 63.81, 140.07 29.01 M39.7 144.48 C78.47 98.78, 117.1 52.61, 140.07 29.01 M43.37 146.35 C76.24 108.82, 109.39 68.02, 141.78 33.15 M43.37 146.35 C64.5 119.7, 87.81 95.31, 141.78 33.15 M47.05 148.22 C67.49 124.52, 87.91 99.87, 143.49 37.28 M47.05 148.22 C75.18 116.04, 103.22 82.69, 143.49 37.28 M51.38 149.34 C74.06 125.88, 94.22 98.51, 145.85 40.66 M51.38 149.34 C80.82 115.78, 110.45 80.88, 145.85 40.66 M55.05 151.21 C77.26 121.58, 100.79 93.84, 147.56 44.79 M55.05 151.21 C87.17 113.97, 120.32 75.06, 147.56 44.79 M58.73 153.08 C87.1 122.92, 116.08 90.85, 149.92 48.17 M58.73 153.08 C91.53 113.86, 125.7 75.73, 149.92 48.17 M63.06 154.19 C97.66 115.15, 127.74 77.92, 151.62 52.3 M63.06 154.19 C93.19 120.94, 122.53 87.41, 151.62 52.3 M68.04 154.55 C100.09 122.63, 126.24 87.13, 153.33 56.44 M68.04 154.55 C99.68 120.47, 129.03 85.76, 153.33 56.44 M73.03 154.91 C104.73 116.42, 138.59 81.81, 153.73 62.08 M73.03 154.91 C99.13 125.97, 124.13 95.64, 153.73 62.08 M78.02 155.27 C106.76 125.3, 130.32 94.03, 154.12 67.72 M78.02 155.27 C102.91 127.9, 127.34 97.78, 154.12 67.72 M83.66 154.88 C106.37 129.17, 128.63 104.32, 154.52 73.37 M83.66 154.88 C108.21 126.78, 130.84 99.77, 154.52 73.37 M88.65 155.24 C102.48 136.72, 118.42 117.18, 154.91 79.01 M88.65 155.24 C101.63 139.6, 117.77 122.06, 154.91 79.01 M94.29 154.84 C106.93 140.95, 120.82 122.69, 155.3 84.65 M94.29 154.84 C117.51 127.39, 142.21 100.3, 155.3 84.65 M102.56 151.43 C111.64 138.1, 121.38 127.73, 155.04 91.05 M102.56 151.43 C116.33 134.49, 131.57 119.26, 155.04 91.05 M110.83 148.01 C125.09 128.02, 143.19 113.02, 150.85 101.98 M110.83 148.01 C123.35 132.85, 138.54 116.76, 150.85 101.98 M119.09 144.6 C127.98 132.52, 139.35 120.71, 147.3 112.15 M119.09 144.6 C128.85 132.61, 139.26 121.65, 147.3 112.15" stroke="#a5d8ff" stroke-width="0.5" fill="none"></path><path d="M49.21 5.12 C58.12 -0.07, 69.21 -0.89, 79.89 -0.61 C90.56 -0.33, 103.38 2.02, 113.28 6.8 C123.19 11.58, 132.62 19.83, 139.31 28.08 C146 36.33, 150.7 46.19, 153.43 56.29 C156.16 66.4, 157.2 78.1, 155.69 88.72 C154.18 99.34, 149.94 111.05, 144.38 120.01 C138.81 128.96, 131.08 136.58, 122.31 142.42 C113.53 148.27, 102.13 153.16, 91.73 155.06 C81.32 156.96, 69.95 156.32, 59.86 153.81 C49.78 151.3, 39.72 146.36, 31.22 140.01 C22.72 133.67, 13.94 125.13, 8.84 115.73 C3.74 106.33, 1.28 94.33, 0.63 83.59 C-0.02 72.86, 1.46 61.07, 4.95 51.32 C8.44 41.57, 13.62 32.96, 21.58 25.09 C29.54 17.22, 46.48 7.46, 52.73 4.09 C58.99 0.72, 58.51 3.61, 59.11 4.87 M106.79 7.07 C116.63 9.76, 128.03 16.7, 135.77 24.15 C143.51 31.61, 149.6 42.1, 153.21 51.8 C156.82 61.5, 158.18 71.86, 157.43 82.33 C156.67 92.8, 153.8 104.94, 148.66 114.64 C143.52 124.33, 135.04 134.05, 126.61 140.5 C118.19 146.95, 108.4 150.87, 98.11 153.35 C87.83 155.82, 75.64 156.79, 64.91 155.33 C54.18 153.87, 42.43 150.21, 33.73 144.59 C25.02 138.97, 18.25 130.59, 12.69 121.6 C7.13 112.62, 1.9 101.52, 0.36 90.68 C-1.18 79.84, 0.61 66.95, 3.47 56.56 C6.33 46.17, 10.55 36.62, 17.51 28.33 C24.47 20.04, 35.64 11.45, 45.21 6.81 C54.78 2.16, 64.33 0.9, 74.94 0.47 C85.54 0.03, 103.32 2.91, 108.85 4.18 C114.38 5.45, 109.03 6.59, 108.11 8.1" stroke="#1e1e1e" stroke-width="1" fill="none"></path></g><g transform="translate(328.65435005670247 365.88904503780805) rotate(0 33.419960021972656 25)"><text x="33.419960021972656" y="17.52" font-family="Virgil, Segoe UI Emoji" font-size="20px" fill="#1e1e1e" text-anchor="middle" style="white-space: pre;" direction="ltr" dominant-baseline="alphabetic">CID </text><text x="33.419960021972656" y="42.519999999999996" font-family="Virgil, Segoe UI Emoji" font-size="20px" fill="#1e1e1e" text-anchor="middle" style="white-space: pre;" direction="ltr" dominant-baseline="alphabetic">Router</text></g><g stroke-linecap="round"><g transform="translate(144.49383056673486 232.43561117175568) rotate(0 73.50116727861004 48.02139156911471)"><path d="M-1.12 -0.95 C23.14 15.05, 121.4 79.25, 145.84 95.47 M0.49 1.17 C25.1 17.41, 123.57 81.43, 148.12 96.99" stroke="#1e1e1e" stroke-width="1" fill="none"></path></g><g transform="translate(144.49383056673486 232.43561117175568) rotate(0 73.50116727861004 48.02139156911471)"><path d="M123.74 91.47 C130.04 92.13, 139.47 93.37, 148.12 96.99 M123.74 91.47 C132.86 94.08, 141.17 96.08, 148.12 96.99" stroke="#1e1e1e" stroke-width="1" fill="none"></path></g><g transform="translate(144.49383056673486 232.43561117175568) rotate(0 73.50116727861004 48.02139156911471)"><path d="M132.99 77.09 C136.23 82.33, 142.66 88.22, 148.12 96.99 M132.99 77.09 C138.57 85.02, 143.42 92.41, 148.12 96.99" stroke="#1e1e1e" stroke-width="1" fill="none"></path></g></g><mask></mask><g stroke-linecap="round"><g transform="translate(299.55292033789897 114.87754784306844) rotate(0 21.03949261097563 95.60815914501518)"><path d="M-0.81 -0.03 C6.17 32.18, 33.78 160.51, 40.78 192.31 M0.96 -1.1 C8.39 30.87, 35.76 158.51, 42.89 190.66" stroke="#1e1e1e" stroke-width="1" fill="none"></path></g><g transform="translate(299.55292033789897 114.87754784306844) rotate(0 21.03949261097563 95.60815914501518)"><path d="M29.54 169.52 C32.07 172.07, 36.37 177.17, 42.89 190.66 M29.54 169.52 C32.06 175.03, 35.43 179.71, 42.89 190.66" stroke="#1e1e1e" stroke-width="1" fill="none"></path></g><g transform="translate(299.55292033789897 114.87754784306844) rotate(0 21.03949261097563 95.60815914501518)"><path d="M46.25 165.88 C45.3 169.07, 46.14 174.92, 42.89 190.66 M46.25 165.88 C44.65 172.36, 43.9 177.93, 42.89 190.66" stroke="#1e1e1e" stroke-width="1" fill="none"></path></g></g><mask></mask><g stroke-linecap="round"><g transform="translate(400.6002345866848 88.58385392581567) rotate(0 -16.304500096427432 106.86697141751824)"><path d="M-1.15 0.89 C-6.52 36.26, -27.87 176.81, -33.06 212.23 M0.45 0.31 C-4.46 35.84, -25.13 178.27, -30.72 213.43" stroke="#1e1e1e" stroke-width="1" fill="none"></path></g><g transform="translate(400.6002345866848 88.58385392581567) rotate(0 -16.304500096427432 106.86697141751824)"><path d="M-35.67 188.92 C-33.05 193.48, -34.45 200.41, -30.72 213.43 M-35.67 188.92 C-34.88 197.08, -31.65 204.91, -30.72 213.43" stroke="#1e1e1e" stroke-width="1" fill="none"></path></g><g transform="translate(400.6002345866848 88.58385392581567) rotate(0 -16.304500096427432 106.86697141751824)"><path d="M-18.76 191.47 C-20.07 195.28, -25.39 201.62, -30.72 213.43 M-18.76 191.47 C-23.71 198.82, -26.25 205.79, -30.72 213.43" stroke="#1e1e1e" stroke-width="1" fill="none"></path></g></g><mask></mask><g stroke-linecap="round"><g transform="translate(215.3394539646037 152.21996029010688) rotate(0 49.30449497873582 81.3034649543115)"><path d="M-0.71 -0.64 C16.04 26.42, 82.81 135.94, 99.32 163.25 M1.12 1.64 C17.81 28.26, 81.78 134.81, 98.39 161.38" stroke="#1e1e1e" stroke-width="1" fill="none"></path></g><g transform="translate(215.3394539646037 152.21996029010688) rotate(0 49.30449497873582 81.3034649543115)"><path d="M78.84 145.8 C81.88 149.16, 87.76 150.73, 98.39 161.38 M78.84 145.8 C86.12 150.36, 91.81 156.76, 98.39 161.38" stroke="#1e1e1e" stroke-width="1" fill="none"></path></g><g transform="translate(215.3394539646037 152.21996029010688) rotate(0 49.30449497873582 81.3034649543115)"><path d="M93.43 136.88 C93.56 141.98, 96.46 145.38, 98.39 161.38 M93.43 136.88 C95.76 144.41, 96.56 153.79, 98.39 161.38" stroke="#1e1e1e" stroke-width="1" fill="none"></path></g></g><mask></mask><g stroke-linecap="round" transform="translate(373.6992771104758 10) rotate(0 33.52120434201072 34.36984242661856)"><path d="M16.76 0 C25.66 -1.56, 33.63 -1.41, 50.28 0 M16.76 0 C26.19 0.71, 36.36 0.63, 50.28 0 M50.28 0 C61.57 1.52, 68.18 5.76, 67.04 16.76 M50.28 0 C60.04 2.2, 68.5 6.1, 67.04 16.76 M67.04 16.76 C65.21 30.71, 66.42 42.15, 67.04 51.98 M67.04 16.76 C67.03 27.63, 66.44 39.77, 67.04 51.98 M67.04 51.98 C67.91 64.92, 60.88 70.13, 50.28 68.74 M67.04 51.98 C67.79 62.37, 60.35 68.93, 50.28 68.74 M50.28 68.74 C37.83 70.13, 22.34 69.91, 16.76 68.74 M50.28 68.74 C38.27 68.36, 25.69 68.81, 16.76 68.74 M16.76 68.74 C5.46 67.02, 0.98 61.65, 0 51.98 M16.76 68.74 C5.36 69.84, 1.34 61, 0 51.98 M0 51.98 C-0.22 40.78, -1.8 30, 0 16.76 M0 51.98 C0.74 38.34, -1.13 24.33, 0 16.76 M0 16.76 C1.47 6.84, 4.13 -0.83, 16.76 0 M0 16.76 C0.11 5.95, 4.76 -0.09, 16.76 0" stroke="#1e1e1e" stroke-width="1" fill="none"></path></g><g transform="translate(383.3404994578576 31.86984242661856) rotate(0 23.879981994628906 12.5)"><text x="23.879981994628906" y="17.52" font-family="Virgil, Segoe UI Emoji" font-size="20px" fill="#1e1e1e" text-anchor="middle" style="white-space: pre;" direction="ltr" dominant-baseline="alphabetic">IPFS</text></g><g stroke-linecap="round" transform="translate(261.0983121924819 37.3324905346567) rotate(0 33.52120434201072 34.36984242661856)"><path d="M16.76 0 C23.86 1.91, 30.28 0.19, 50.28 0 M16.76 0 C28.47 0.63, 40.64 -0.05, 50.28 0 M50.28 0 C60.23 1.92, 68.31 6.03, 67.04 16.76 M50.28 0 C63.01 0.54, 67.97 3.39, 67.04 16.76 M67.04 16.76 C67.28 29.63, 65.23 41.18, 67.04 51.98 M67.04 16.76 C67.23 27, 66.51 36.17, 67.04 51.98 M67.04 51.98 C67.69 62.47, 60.5 68.91, 50.28 68.74 M67.04 51.98 C69.06 61.27, 60.52 69.37, 50.28 68.74 M50.28 68.74 C39.01 66.97, 25.42 69.54, 16.76 68.74 M50.28 68.74 C41.63 67.88, 33.59 67.99, 16.76 68.74 M16.76 68.74 C5.39 69.7, 1.16 61.28, 0 51.98 M16.76 68.74 C6.39 70, 1.72 63.13, 0 51.98 M0 51.98 C2.17 41.62, 0.64 30.65, 0 16.76 M0 51.98 C1.06 41.14, -0.41 28.64, 0 16.76 M0 16.76 C0.09 5.9, 4.86 -0.08, 16.76 0 M0 16.76 C0.36 4.06, 6.75 1.29, 16.76 0" stroke="#1e1e1e" stroke-width="1" fill="none"></path></g><g transform="translate(274.38953606574273 59.20233296127526) rotate(0 20.22998046875 12.5)"><text x="20.22998046875" y="17.52" font-family="Virgil, Segoe UI Emoji" font-size="20px" fill="#1e1e1e" text-anchor="middle" style="white-space: pre;" direction="ltr" dominant-baseline="alphabetic">Iroh</text></g><g stroke-linecap="round" transform="translate(153.0780850242436 77.677623049462) rotate(0 33.52120434201075 34.36984242661856)"><path d="M16.76 0 C30.58 1.38, 43.29 0.12, 50.28 0 M16.76 0 C28.76 0.93, 42.62 0.19, 50.28 0 M50.28 0 C62.81 0.47, 67.85 3.68, 67.04 16.76 M50.28 0 C62.6 -0.81, 66.45 6.01, 67.04 16.76 M67.04 16.76 C66.06 26.89, 67.93 40.7, 67.04 51.98 M67.04 16.76 C67.27 30.09, 66.46 44.18, 67.04 51.98 M67.04 51.98 C68.8 61.51, 60.64 69.29, 50.28 68.74 M67.04 51.98 C68.8 60.92, 62.96 70.28, 50.28 68.74 M50.28 68.74 C42.68 68.83, 36.84 68.71, 16.76 68.74 M50.28 68.74 C43.01 68.97, 36.51 67.55, 16.76 68.74 M16.76 68.74 C6.29 69.83, 1.49 63.13, 0 51.98 M16.76 68.74 C6.28 66.89, 1.87 65.33, 0 51.98 M0 51.98 C0.44 37.36, 0.2 27.85, 0 16.76 M0 51.98 C0.3 39.37, -0.11 26.41, 0 16.76 M0 16.76 C0.31 4.26, 6.6 1.12, 16.76 0 M0 16.76 C1.57 5.7, 3.41 -0.93, 16.76 0" stroke="#1e1e1e" stroke-width="1" fill="none"></path></g><g transform="translate(161.49931378031692 87.04746547608056) rotate(0 25.0999755859375 25)"><text x="25.0999755859375" y="17.52" font-family="Virgil, Segoe UI Emoji" font-size="20px" fill="#1e1e1e" text-anchor="middle" style="white-space: pre;" direction="ltr" dominant-baseline="alphabetic">AWS </text><text x="25.0999755859375" y="42.519999999999996" font-family="Virgil, Segoe UI Emoji" font-size="20px" fill="#1e1e1e" text-anchor="middle" style="white-space: pre;" direction="ltr" dominant-baseline="alphabetic">S3</text></g><g stroke-linecap="round" transform="translate(66.05385725071665 158.53790657654554) rotate(0 33.52120434201075 42.5)"><path d="M16.76 0 C30.64 1.12, 41.66 -1.25, 50.28 0 M16.76 0 C30.71 0.16, 43.7 -1.03, 50.28 0 M50.28 0 C62.45 -0.7, 66.53 5.95, 67.04 16.76 M50.28 0 C62.09 -1.95, 66.79 4.8, 67.04 16.76 M67.04 16.76 C69.11 28.01, 68.73 41.07, 67.04 68.24 M67.04 16.76 C67.67 29.62, 66.39 44.4, 67.04 68.24 M67.04 68.24 C68.57 77.47, 62.77 86.34, 50.28 85 M67.04 68.24 C64.76 79.83, 62.12 83.99, 50.28 85 M50.28 85 C38.51 85.95, 28.68 84.78, 16.76 85 M50.28 85 C38.97 85.23, 27.7 84.67, 16.76 85 M16.76 85 C6.19 83.4, 1.62 81.3, 0 68.24 M16.76 85 C7.05 85.42, 2.21 80, 0 68.24 M0 68.24 C1.18 56.02, -0.89 46.79, 0 16.76 M0 68.24 C0.34 51.33, 0.69 36.31, 0 16.76 M0 16.76 C1.37 5.69, 3.69 -0.81, 16.76 0 M0 16.76 C1.42 6.89, 6.31 -1.96, 16.76 0" stroke="#1e1e1e" stroke-width="1" fill="none"></path></g><g transform="translate(71.84508875337201 163.53790657654554) rotate(0 27.72997283935547 37.5)"><text x="27.72997283935547" y="17.52" font-family="Virgil, Segoe UI Emoji" font-size="20px" fill="#1e1e1e" text-anchor="middle" style="white-space: pre;" direction="ltr" dominant-baseline="alphabetic">Azure</text><text x="27.72997283935547" y="42.519999999999996" font-family="Virgil, Segoe UI Emoji" font-size="20px" fill="#1e1e1e" text-anchor="middle" style="white-space: pre;" direction="ltr" dominant-baseline="alphabetic">Blob</text><text x="27.72997283935547" y="67.52" font-family="Virgil, Segoe UI Emoji" font-size="20px" fill="#1e1e1e" text-anchor="middle" style="white-space: pre;" direction="ltr" dominant-baseline="alphabetic">Store</text></g><g stroke-linecap="round"><g transform="translate(495.2907898983668 140.12930667444243) rotate(0 -49.78622002307753 83.27101958601997)"><path d="M0.6 -0.42 C-15.99 27.81, -82.56 140.33, -99.06 168.23 M-0.55 -1.69 C-17.37 26.25, -83.76 137.98, -100.17 166.22" stroke="#1e1e1e" stroke-width="1" fill="none"></path></g><g transform="translate(495.2907898983668 140.12930667444243) rotate(0 -49.78622002307753 83.27101958601997)"><path d="M-95.62 141.64 C-98.11 149.51, -98.59 158.94, -100.17 166.22 M-95.62 141.64 C-97.33 147.51, -97.18 153.1, -100.17 166.22" stroke="#1e1e1e" stroke-width="1" fill="none"></path></g><g transform="translate(495.2907898983668 140.12930667444243) rotate(0 -49.78622002307753 83.27101958601997)"><path d="M-80.88 150.32 C-88.3 155.31, -93.79 161.79, -100.17 166.22 M-80.88 150.32 C-85.76 154.27, -88.78 157.98, -100.17 166.22" stroke="#1e1e1e" stroke-width="1" fill="none"></path></g></g><mask></mask><g stroke-linecap="round"><g transform="translate(572.8551842443742 204.7683070175667) rotate(0 -76.79219959781966 58.29448237470774)"><path d="M-0.31 0.22 C-26.17 19.67, -128.76 96.85, -154.54 116.3 M1.73 -0.71 C-24.31 18.89, -129.05 97.52, -155.31 117.3" stroke="#1e1e1e" stroke-width="1" fill="none"></path></g><g transform="translate(572.8551842443742 204.7683070175667) rotate(0 -76.79219959781966 58.29448237470774)"><path d="M-141.67 96.35 C-146.15 104.19, -152.98 110.75, -155.31 117.3 M-141.67 96.35 C-145.01 102.88, -149.36 108.26, -155.31 117.3" stroke="#1e1e1e" stroke-width="1" fill="none"></path></g><g transform="translate(572.8551842443742 204.7683070175667) rotate(0 -76.79219959781966 58.29448237470774)"><path d="M-131.4 110.02 C-139.42 113.06, -149.85 114.83, -155.31 117.3 M-131.4 110.02 C-137.37 112.98, -144.45 114.72, -155.31 117.3" stroke="#1e1e1e" stroke-width="1" fill="none"></path></g></g><mask></mask><g stroke-linecap="round" transform="translate(474.7220326747437 61.3375473267165) rotate(0 37.76439476505004 34.36984242661856)"><path d="M17.18 0 C26.78 -0.34, 39.07 -1.52, 58.34 0 M17.18 0 C31.68 0.33, 47.08 -0.7, 58.34 0 M58.34 0 C68.84 0.17, 77.29 4.09, 75.53 17.18 M58.34 0 C68.87 0.63, 77.28 3.5, 75.53 17.18 M75.53 17.18 C76.12 30.32, 74.88 42.31, 75.53 51.55 M75.53 17.18 C75.99 26.76, 75.41 38.32, 75.53 51.55 M75.53 51.55 C76.69 61.14, 70.5 69.83, 58.34 68.74 M75.53 51.55 C77.25 62.98, 70.49 66.89, 58.34 68.74 M58.34 68.74 C43.02 70.92, 27.48 67.18, 17.18 68.74 M58.34 68.74 C44.72 68.58, 32.59 69.15, 17.18 68.74 M17.18 68.74 C5.01 68.66, 0.31 61.69, 0 51.55 M17.18 68.74 C6.89 70.03, 1.57 63.13, 0 51.55 M0 51.55 C1.27 45.13, -1.56 36.04, 0 17.18 M0 51.55 C-0.65 39.41, 0.37 26.82, 0 17.18 M0 17.18 C0.11 6.73, 5.07 -1.56, 17.18 0 M0 17.18 C-0.89 5.15, 6.57 1.36, 17.18 0" stroke="#1e1e1e" stroke-width="1" fill="none"></path></g><g transform="translate(480.48646558676637 83.20738975333506) rotate(0 31.999961853027344 12.5)"><text x="31.999961853027344" y="17.52" font-family="Virgil, Segoe UI Emoji" font-size="20px" fill="#1e1e1e" text-anchor="middle" style="white-space: pre;" direction="ltr" dominant-baseline="alphabetic">GitHub</text></g><g stroke-linecap="round" transform="translate(579.2881740968054 129.6503847416193) rotate(0 38.18871380735408 35.28657628083306)"><path d="M17.64 0 C30.69 1.15, 43.14 -0.29, 58.73 0 M17.64 0 C32.34 0.22, 48.88 -0.68, 58.73 0 M58.73 0 C69.69 0.55, 77.9 3.94, 76.38 17.64 M58.73 0 C72 1.54, 74.09 6.3, 76.38 17.64 M76.38 17.64 C76.23 29.12, 74.5 41.82, 76.38 52.93 M76.38 17.64 C76.92 24.65, 76.69 34.07, 76.38 52.93 M76.38 52.93 C77.87 64.67, 71.1 68.97, 58.73 70.57 M76.38 52.93 C78.24 66.87, 71.95 70.99, 58.73 70.57 M58.73 70.57 C42.73 71.67, 27.45 68.75, 17.64 70.57 M58.73 70.57 C47.74 70.6, 37.63 69.98, 17.64 70.57 M17.64 70.57 C6.89 71.7, 1.37 64.79, 0 52.93 M17.64 70.57 C3.7 69.64, 1.42 65.99, 0 52.93 M0 52.93 C1.39 41.62, 0.72 28.37, 0 17.64 M0 52.93 C-0.1 42.69, -0.48 30.68, 0 17.64 M0 17.64 C-0.77 5.38, 6.61 1.18, 17.64 0 M0 17.64 C2.03 3.62, 5.55 0.69, 17.64 0" stroke="#1e1e1e" stroke-width="1" fill="none"></path></g><g transform="translate(584.3969242200774 139.93696102245258) rotate(0 33.07996368408203 25)"><text x="33.07996368408203" y="17.52" font-family="Virgil, Segoe UI Emoji" font-size="20px" fill="#1e1e1e" text-anchor="middle" style="white-space: pre;" direction="ltr" dominant-baseline="alphabetic">Hugging</text><text x="33.07996368408203" y="42.519999999999996" font-family="Virgil, Segoe UI Emoji" font-size="20px" fill="#1e1e1e" text-anchor="middle" style="white-space: pre;" direction="ltr" dominant-baseline="alphabetic">Face</text></g><g stroke-linecap="round" transform="translate(12.332168710949873 553.2024998490269) rotate(0 118.02592827329022 17.5)"><path d="M0.78 4.65 C0.78 4.65, 0.78 4.65, 0.78 4.65 M0.78 4.65 C0.78 4.65, 0.78 4.65, 0.78 4.65 M0.52 11.05 C3.6 8.92, 6 4.58, 10.36 -0.27 M0.52 11.05 C2.21 8.7, 4.1 6.82, 10.36 -0.27 M0.26 17.45 C5.67 11.76, 12.1 6.13, 15.35 0.09 M0.26 17.45 C3.5 13.28, 6.56 10.24, 15.35 0.09 M0 23.85 C6.09 18.93, 9.1 13.18, 20.99 -0.3 M0 23.85 C7.48 15.54, 15.27 6.84, 20.99 -0.3 M1.05 28.74 C9.44 18.1, 21.2 4.52, 25.98 0.06 M1.05 28.74 C7.13 22.15, 12.64 16.66, 25.98 0.06 M2.75 32.87 C12.22 22.43, 16.28 17.7, 31.62 -0.34 M2.75 32.87 C7.98 24.32, 16.09 18.54, 31.62 -0.34 M6.43 34.74 C11.52 26.73, 20.78 19.71, 36.61 0.02 M6.43 34.74 C17.21 21.55, 29.99 6.95, 36.61 0.02 M11.42 35.1 C18.08 25.44, 26.42 19.56, 41.59 0.38 M11.42 35.1 C18.08 26.38, 25.59 18.41, 41.59 0.38 M17.06 34.7 C29.73 20.22, 39.47 11.24, 47.24 -0.01 M17.06 34.7 C28.44 22.72, 39.14 8.94, 47.24 -0.01 M22.05 35.06 C30.41 28.39, 35.68 19.67, 52.22 0.35 M22.05 35.06 C28.23 27.75, 34.58 19.25, 52.22 0.35 M27.03 35.42 C34.65 26.98, 42.02 18.24, 57.87 -0.05 M27.03 35.42 C38.34 20.71, 50.27 6.67, 57.87 -0.05 M32.68 35.03 C42.45 26.45, 48.2 16.12, 62.85 0.31 M32.68 35.03 C44.64 21.78, 55.21 8.48, 62.85 0.31 M37.66 35.39 C46.32 26.31, 54 18.77, 68.5 -0.08 M37.66 35.39 C50.3 22.15, 61.48 7.34, 68.5 -0.08 M43.31 34.99 C50.91 27.1, 56.34 19.76, 73.48 0.28 M43.31 34.99 C53.98 22.78, 66.24 10.86, 73.48 0.28 M48.29 35.35 C55.14 28.62, 62.32 21.71, 79.13 -0.12 M48.29 35.35 C56.01 26.34, 64.95 17.06, 79.13 -0.12 M53.94 34.96 C64.59 21.37, 74.86 8.76, 84.11 0.24 M53.94 34.96 C63.46 24.85, 72.66 12.88, 84.11 0.24 M58.92 35.32 C68.04 27.09, 76.11 15.77, 89.76 -0.15 M58.92 35.32 C64.6 28.06, 70.38 21.98, 89.76 -0.15 M64.57 34.93 C72.69 28.36, 79.93 19.3, 94.74 0.21 M64.57 34.93 C71.85 27.31, 77.52 20.41, 94.74 0.21 M69.55 35.29 C79.06 21.89, 90.09 11.09, 100.39 -0.19 M69.55 35.29 C81.49 21.45, 92.82 6.69, 100.39 -0.19 M75.2 34.89 C84.6 24.25, 94.23 10.51, 105.37 0.17 M75.2 34.89 C81.04 26.14, 88.68 19.78, 105.37 0.17 M80.18 35.25 C86.77 27.27, 93.08 18.85, 111.02 -0.22 M80.18 35.25 C88.86 25.13, 97.56 14.04, 111.02 -0.22 M85.83 34.86 C93.42 28.24, 99.19 17.42, 116 0.14 M85.83 34.86 C95.1 24.54, 104.66 12.72, 116 0.14 M90.81 35.22 C97.47 24.04, 104.84 14.91, 121.65 -0.25 M90.81 35.22 C101.31 23.04, 112.21 9.73, 121.65 -0.25 M96.46 34.82 C105.66 25.78, 115.96 15.21, 126.63 0.11 M96.46 34.82 C107.23 21.71, 118.69 9.71, 126.63 0.11 M101.44 35.18 C114.38 20.71, 123.24 7.89, 132.28 -0.29 M101.44 35.18 C112.31 23.11, 122.77 11.29, 132.28 -0.29 M107.09 34.79 C119.71 24.62, 126.62 11.26, 137.26 0.07 M107.09 34.79 C118.89 22.73, 128.86 10.32, 137.26 0.07 M112.07 35.15 C123.85 19.47, 137.96 7.57, 142.91 -0.32 M112.07 35.15 C121.86 24.33, 131.1 12.13, 142.91 -0.32 M117.72 34.75 C129.91 23.6, 137.43 10.78, 147.89 0.04 M117.72 34.75 C127.93 24.33, 137.24 11.6, 147.89 0.04 M122.7 35.11 C132.82 23.27, 142.85 12.48, 152.88 0.4 M122.7 35.11 C133.69 22.67, 142.62 11.42, 152.88 0.4 M128.35 34.72 C133.82 25.99, 141.01 16.51, 158.52 0 M128.35 34.72 C133.82 28.07, 142.08 19.59, 158.52 0 M133.33 35.08 C138.92 28.97, 145.89 18.66, 163.51 0.36 M133.33 35.08 C144.56 21.39, 157.44 7.9, 163.51 0.36 M138.98 34.68 C143.75 26.58, 148.97 21.42, 169.16 -0.03 M138.98 34.68 C146.53 24.82, 155.75 16.5, 169.16 -0.03 M143.96 35.04 C154.29 19.53, 168.47 9.04, 174.14 0.33 M143.96 35.04 C153.18 23.68, 165.06 11.41, 174.14 0.33 M148.95 35.4 C158.77 22.29, 171.04 9.44, 179.79 -0.07 M148.95 35.4 C159.65 22.31, 171.02 10.24, 179.79 -0.07 M154.59 35.01 C160.47 27.72, 170.15 19.24, 184.77 0.29 M154.59 35.01 C163.57 25.59, 171.64 16.44, 184.77 0.29 M159.58 35.37 C165.6 29.13, 171.93 18.96, 190.42 -0.1 M159.58 35.37 C170 23.63, 180.7 11.67, 190.42 -0.1 M165.22 34.98 C174.39 27.55, 179.77 15.33, 195.4 0.26 M165.22 34.98 C174.35 24.83, 183.99 12.7, 195.4 0.26 M170.21 35.34 C179.54 25.34, 191.25 11.87, 201.05 -0.14 M170.21 35.34 C177.17 26.67, 185.68 19.95, 201.05 -0.14 M175.85 34.94 C186.93 20.84, 198.68 7.36, 206.03 0.22 M175.85 34.94 C181.84 27.66, 189.67 19.25, 206.03 0.22 M180.84 35.3 C193.02 21.79, 203.15 8.8, 211.68 -0.17 M180.84 35.3 C189.28 26.52, 196.95 17.29, 211.68 -0.17 M186.48 34.91 C198.1 20.9, 206.99 11.73, 216.66 0.19 M186.48 34.91 C193.73 26.69, 199.75 19.21, 216.66 0.19 M191.47 35.27 C199.75 26.11, 208.36 17.25, 222.31 -0.2 M191.47 35.27 C199.05 27.49, 204.32 20.56, 222.31 -0.2 M197.11 34.87 C207.32 20.3, 220.97 9.61, 227.29 0.16 M197.11 34.87 C206.69 23.53, 217.3 12.59, 227.29 0.16 M202.1 35.23 C210.22 24.4, 218.52 14.99, 231.62 1.27 M202.1 35.23 C210.08 24.83, 219.98 14.59, 231.62 1.27 M207.74 34.84 C215.57 25.02, 225.12 14.49, 234.64 3.89 M207.74 34.84 C213.24 27.57, 220.59 21.43, 234.64 3.89 M212.73 35.2 C219.81 28.92, 224.41 18.01, 236.35 8.03 M212.73 35.2 C220.72 27.92, 226.55 18.45, 236.35 8.03 M218.37 34.8 C226.88 24.91, 230.67 18.39, 236.09 14.43 M218.37 34.8 C224.97 26.11, 232.13 19.17, 236.09 14.43 M223.36 35.16 C226.7 31.2, 231.62 24.47, 236.48 20.07 M223.36 35.16 C228.14 29.8, 233.3 23.45, 236.48 20.07 M229 34.77 C230.23 32.99, 231.08 30.36, 236.22 26.47 M229 34.77 C230.29 33.5, 231.71 31.58, 236.22 26.47" stroke="#ffec99" stroke-width="0.5" fill="none"></path><path d="M8.75 0 C84.96 1.11, 158.17 -0.28, 227.3 0 M8.75 0 C75.78 1.8, 144.18 0.72, 227.3 0 M227.3 0 C234.45 1.34, 234.06 3.28, 236.05 8.75 M227.3 0 C233.8 -1.01, 236.05 2.93, 236.05 8.75 M236.05 8.75 C234.59 13.72, 236.74 20.05, 236.05 26.25 M236.05 8.75 C236.77 12.35, 236.38 15.28, 236.05 26.25 M236.05 26.25 C237.67 33.97, 234.4 35.36, 227.3 35 M236.05 26.25 C238.26 32.67, 231.05 35.31, 227.3 35 M227.3 35 C144.93 33.7, 64.27 32.99, 8.75 35 M227.3 35 C163.06 34.23, 98.53 33.79, 8.75 35 M8.75 35 C1.02 34.19, 1.23 33.22, 0 26.25 M8.75 35 C3.64 33.04, -1.62 33.34, 0 26.25 M0 26.25 C0.04 21.43, -0.66 15.17, 0 8.75 M0 26.25 C-0.28 19.91, 0.38 14.52, 0 8.75 M0 8.75 C1.76 0.95, 2.62 0.6, 8.75 0 M0 8.75 C-0.01 2.73, 1.38 1.81, 8.75 0" stroke="#1e1e1e" stroke-width="1" fill="none"></path></g><g transform="translate(17.332168710949873 558.2024998490269) rotate(0 72.659912109375 12.5)"><text x="0" y="17.52" font-family="Virgil, Segoe UI Emoji" font-size="20px" fill="#1e1e1e" text-anchor="start" style="white-space: pre;" direction="ltr" dominant-baseline="alphabetic">GET /cid/baf..</text></g><g stroke-linecap="round" transform="translate(319.01401935669514 550.6784962172951) rotate(0 203.6818762184629 155)"><path d="M7.86 8.16 C7.86 8.16, 7.86 8.16, 7.86 8.16 M7.86 8.16 C7.86 8.16, 7.86 8.16, 7.86 8.16 M2.35 20.59 C5.74 15.65, 14.25 7.66, 18.1 2.48 M2.35 20.59 C7.89 14.49, 12.77 9.34, 18.1 2.48 M1.43 27.75 C7.44 17.43, 15.67 9.48, 24.4 1.33 M1.43 27.75 C6.75 20.33, 12.61 14.63, 24.4 1.33 M1.17 34.14 C11.77 24.53, 21.1 12.82, 30.7 0.18 M1.17 34.14 C12.22 21.6, 21.88 9.65, 30.7 0.18 M0.91 40.54 C11.06 26.49, 26.13 14.55, 36.34 -0.21 M0.91 40.54 C11.05 27.48, 21.84 16.52, 36.34 -0.21 M1.31 46.19 C8.29 38.44, 19.19 25.18, 41.33 0.15 M1.31 46.19 C8.77 35.57, 19.26 25.25, 41.33 0.15 M1.04 52.58 C14.66 38.32, 26.4 22.36, 46.97 -0.25 M1.04 52.58 C16.4 35.17, 33.94 15.91, 46.97 -0.25 M0.78 58.98 C12.09 45.34, 25.59 28.95, 51.96 0.11 M0.78 58.98 C11.81 46.46, 21.16 35.45, 51.96 0.11 M1.18 64.62 C14.07 52.53, 23.99 38.76, 57.6 -0.28 M1.18 64.62 C21.21 41.48, 43.65 17.53, 57.6 -0.28 M0.92 71.02 C21.29 46.42, 46.87 19.39, 62.59 0.08 M0.92 71.02 C22.6 45.16, 45.34 20.72, 62.59 0.08 M1.31 76.67 C22.26 56.66, 40.26 31.64, 67.57 0.44 M1.31 76.67 C17.24 59.06, 33.23 41.91, 67.57 0.44 M1.05 83.06 C29.17 54.85, 53.17 24.57, 73.22 0.04 M1.05 83.06 C24.45 55.63, 48.45 29.37, 73.22 0.04 M0.79 89.46 C22.41 64.81, 43.02 42.98, 78.2 0.41 M0.79 89.46 C30.43 55.72, 60.82 21.03, 78.2 0.41 M1.18 95.1 C29.15 64.5, 52.37 33.78, 83.85 0.01 M1.18 95.1 C25.79 64.13, 53.95 33.85, 83.85 0.01 M0.92 101.5 C31.33 64.2, 65.65 27.24, 88.83 0.37 M0.92 101.5 C32.57 64.3, 63.42 28.27, 88.83 0.37 M0.66 107.9 C24.58 82.96, 48.77 55.94, 94.48 -0.02 M0.66 107.9 C35.39 67.82, 70.67 27.45, 94.48 -0.02 M1.05 113.54 C37.51 69.84, 76.12 24.35, 99.46 0.34 M1.05 113.54 C28.34 82.32, 55.1 51.69, 99.46 0.34 M0.79 119.94 C40.66 72.4, 82.36 24.94, 105.11 -0.06 M0.79 119.94 C29.64 87.05, 57.95 53.69, 105.11 -0.06 M1.19 125.58 C32.04 93.7, 59.84 60.01, 110.09 0.3 M1.19 125.58 C38.44 84.95, 73.66 43.13, 110.09 0.3 M0.93 131.98 C42.35 85.31, 85.07 34.56, 115.74 -0.09 M0.93 131.98 C25.29 102.75, 50.27 73.77, 115.74 -0.09 M0.66 138.38 C33.15 101.63, 65.08 63.7, 120.72 0.27 M0.66 138.38 C40.14 92.97, 80.4 49.27, 120.72 0.27 M1.06 144.02 C47.28 92.38, 93.13 39.76, 126.37 -0.13 M1.06 144.02 C45.75 93.63, 90.88 40.44, 126.37 -0.13 M0.8 150.42 C29.86 122.92, 53.38 90.06, 131.35 0.23 M0.8 150.42 C45.47 99.53, 88.62 49.69, 131.35 0.23 M1.19 156.06 C52.23 99.05, 101.18 39.27, 137 -0.16 M1.19 156.06 C39.7 110.83, 77.38 68.25, 137 -0.16 M0.93 162.46 C34.95 124.46, 65.59 88.81, 141.98 0.2 M0.93 162.46 C31.58 127.1, 62.11 91.9, 141.98 0.2 M0.67 168.86 C59.68 101.88, 114.8 39.22, 147.63 -0.2 M0.67 168.86 C45.06 118.21, 88.41 67.64, 147.63 -0.2 M1.06 174.5 C33.89 133.93, 67.13 96.43, 152.61 0.16 M1.06 174.5 C54.07 115.33, 105.7 57.57, 152.61 0.16 M0.8 180.9 C59.28 116.75, 113.87 51.07, 158.26 -0.23 M0.8 180.9 C59.33 113.75, 117.38 47.5, 158.26 -0.23 M0.54 187.3 C35.97 147.47, 71.07 106.89, 163.24 0.13 M0.54 187.3 C35.81 148.02, 70.91 106.08, 163.24 0.13 M0.94 192.94 C46.7 142.78, 93.46 87.35, 168.89 -0.27 M0.94 192.94 C63.87 117.99, 128.94 43.17, 168.89 -0.27 M0.67 199.34 C67.96 124.45, 132.51 49.51, 173.87 0.09 M0.67 199.34 C46.71 145.25, 95.62 88.88, 173.87 0.09 M1.07 204.98 C46.28 152.32, 92.03 101.53, 178.86 0.45 M1.07 204.98 C49.69 148.35, 96.97 92.34, 178.86 0.45 M0.81 211.38 C39.99 165.59, 78.2 119.23, 184.5 0.06 M0.81 211.38 C60.21 141.64, 119.93 72.47, 184.5 0.06 M0.55 217.78 C48.11 166.05, 93.72 110.31, 189.49 0.42 M0.55 217.78 C55.18 153.4, 109.7 90.57, 189.49 0.42 M0.94 223.42 C67.91 143.09, 136.16 67.23, 195.13 0.03 M0.94 223.42 C49.98 165.13, 101.55 106.2, 195.13 0.03 M0.68 229.82 C77.08 143.14, 152.28 57.91, 200.12 0.39 M0.68 229.82 C67.34 152.9, 134.66 75.58, 200.12 0.39 M0.42 236.22 C83.74 143.51, 164.68 48.19, 205.76 -0.01 M0.42 236.22 C74.31 152.43, 147.95 67.18, 205.76 -0.01 M0.81 241.86 C76.04 152.46, 154.09 63.87, 210.75 0.35 M0.81 241.86 C52.01 180.03, 104.04 120, 210.75 0.35 M0.55 248.26 C54.62 186.84, 111.42 121.7, 216.39 -0.04 M0.55 248.26 C83.29 152.1, 165.93 57.7, 216.39 -0.04 M0.95 253.9 C69.09 176.14, 137.36 98.92, 221.38 0.32 M0.95 253.9 C65.14 179.2, 130.11 104.21, 221.38 0.32 M0.68 260.3 C46.72 206.21, 94.16 153.23, 227.02 -0.08 M0.68 260.3 C65.81 186.04, 130.46 112.01, 227.02 -0.08 M0.42 266.69 C70.46 182.53, 143.51 101.73, 232.01 0.28 M0.42 266.69 C68.51 189.87, 134.9 112.76, 232.01 0.28 M0.82 272.34 C52.71 210.22, 104.71 149.14, 237.65 -0.11 M0.82 272.34 C71.52 189.63, 142.46 108.31, 237.65 -0.11 M0.56 278.74 C57.76 215.03, 114.11 147.97, 242.64 0.25 M0.56 278.74 C62.71 207.03, 125.84 134.43, 242.64 0.25 M1.61 283.62 C67.88 207.16, 136.29 127.46, 248.28 -0.15 M1.61 283.62 C61.99 212.26, 124.45 140.41, 248.28 -0.15 M2 289.27 C98.22 180.54, 193.56 72.95, 253.27 0.21 M2 289.27 C102.84 175.85, 202.12 61.65, 253.27 0.21 M3.05 294.16 C61.02 229.29, 116.37 165.95, 258.91 -0.18 M3.05 294.16 C68.03 219.3, 131.8 145.77, 258.91 -0.18 M5.41 297.53 C103.89 186.19, 200.4 74.95, 263.9 0.18 M5.41 297.53 C83.08 207.84, 162.48 116.45, 263.9 0.18 M7.78 300.91 C83.08 214.95, 159.58 129.1, 269.54 -0.22 M7.78 300.91 C110.65 183.02, 212.58 66.26, 269.54 -0.22 M10.8 303.54 C87.91 213.2, 167.8 121.22, 274.53 0.14 M10.8 303.54 C100.2 198.99, 190.97 94.8, 274.53 0.14 M14.47 305.41 C70.12 241.26, 129.77 173.45, 280.17 -0.25 M14.47 305.41 C78.99 229.43, 144.5 154.02, 280.17 -0.25 M17.49 308.03 C114.34 196.78, 213.57 83.58, 285.16 0.11 M17.49 308.03 C97.05 216.19, 174.35 126.23, 285.16 0.11 M21.82 309.15 C110.18 206.42, 199.82 103.1, 290.8 -0.28 M21.82 309.15 C129.03 187.23, 234.4 66, 290.8 -0.28 M26.81 309.51 C89.02 237.51, 148.68 168.26, 295.79 0.08 M26.81 309.51 C101.38 223.25, 175.35 138.62, 295.79 0.08 M31.14 310.62 C96.95 235.32, 161.08 162.3, 300.78 0.44 M31.14 310.62 C104.73 223.57, 179.26 137.79, 300.78 0.44 M36.78 310.23 C112.09 224.57, 186.15 139.12, 306.42 0.04 M36.78 310.23 C104.86 233.72, 171.43 157.36, 306.42 0.04 M41.77 310.59 C130.8 207.11, 222.45 102.28, 311.41 0.4 M41.77 310.59 C134.49 206.15, 225.35 100.77, 311.41 0.4 M47.41 310.19 C140.67 204.05, 232.24 96.74, 317.05 0.01 M47.41 310.19 C129.41 215.43, 211.4 120.08, 317.05 0.01 M52.4 310.55 C134.05 214.95, 219.33 119.18, 322.04 0.37 M52.4 310.55 C134.24 216.12, 215.95 121.49, 322.04 0.37 M58.04 310.16 C165.63 188.57, 271.53 64.66, 327.68 -0.03 M58.04 310.16 C161.74 191.63, 264.49 73.02, 327.68 -0.03 M63.03 310.52 C127.57 235.58, 193.07 160.77, 332.67 0.33 M63.03 310.52 C139.53 224.33, 214.15 137.07, 332.67 0.33 M68.67 310.12 C136.35 232.91, 201.93 158.12, 338.31 -0.06 M68.67 310.12 C157.31 206.41, 246.56 103.61, 338.31 -0.06 M73.66 310.48 C153.79 218.91, 233.35 126.43, 343.3 0.3 M73.66 310.48 C142.62 230.15, 214.25 147.66, 343.3 0.3 M78.65 310.84 C142.93 235.39, 205.91 161.41, 348.94 -0.1 M78.65 310.84 C152.3 226.98, 225.36 142.7, 348.94 -0.1 M84.29 310.45 C142.44 241.26, 204.69 173.23, 353.93 0.26 M84.29 310.45 C146.43 237.98, 210.53 165.34, 353.93 0.26 M89.28 310.81 C188.18 195.83, 288.04 83.1, 359.57 -0.13 M89.28 310.81 C149.14 241.5, 209.17 171.65, 359.57 -0.13 M94.92 310.41 C167.29 225.01, 241.49 138.89, 364.56 0.23 M94.92 310.41 C166.76 226.8, 239.66 143.74, 364.56 0.23 M99.91 310.77 C192.57 202.07, 287.87 95.57, 370.2 -0.17 M99.91 310.77 C173.9 225.67, 247.58 141.18, 370.2 -0.17 M105.55 310.38 C180.4 222.01, 254.99 135.06, 375.19 0.19 M105.55 310.38 C161.55 245.29, 218.04 180.59, 375.19 0.19 M110.54 310.74 C207.36 201.15, 303.04 91.86, 379.52 1.31 M110.54 310.74 C169.28 242.79, 229.22 174.75, 379.52 1.31 M116.18 310.35 C213.46 195.69, 311.84 84.36, 384.51 1.67 M116.18 310.35 C171.07 248.28, 225.33 185.05, 384.51 1.67 M121.17 310.71 C200 220.38, 276.5 130.93, 389.49 2.03 M121.17 310.71 C208.07 212.03, 294.17 112.51, 389.49 2.03 M126.81 310.31 C188.62 239.75, 251.26 167.46, 393.17 3.9 M126.81 310.31 C228.06 193.66, 328.42 77.44, 393.17 3.9 M131.8 310.67 C209.91 221.46, 288.38 131.66, 396.19 6.52 M131.8 310.67 C222.13 206.17, 314.61 100.85, 396.19 6.52 M137.44 310.28 C215.31 223.11, 290.75 134.77, 399.86 8.39 M137.44 310.28 C228.5 208.58, 317.14 106.1, 399.86 8.39 M142.43 310.64 C208.8 236.53, 274.93 160.81, 402.23 11.77 M142.43 310.64 C225.49 214.84, 307.23 119.66, 402.23 11.77 M148.07 310.24 C231.85 215.03, 316.1 117.96, 403.93 15.9 M148.07 310.24 C222.31 225.29, 295.85 141.38, 403.93 15.9 M153.06 310.6 C224.94 227.81, 297.78 146.17, 405.64 20.04 M153.06 310.6 C252.21 197.76, 350.72 84.34, 405.64 20.04 M158.7 310.21 C212.55 248.16, 267.88 184.61, 406.69 24.93 M158.7 310.21 C235.61 222.83, 311 136.96, 406.69 24.93 M163.69 310.57 C224.7 239.17, 286.08 168.35, 407.74 29.82 M163.69 310.57 C249.98 212.21, 334.3 114.56, 407.74 29.82 M169.33 310.17 C225.09 246.96, 282.32 179.25, 408.14 35.46 M169.33 310.17 C233 239.42, 296.12 167.48, 408.14 35.46 M174.32 310.53 C234.45 241.69, 294.84 172.13, 407.87 41.86 M174.32 310.53 C247.77 225.81, 321.91 139.81, 407.87 41.86 M179.96 310.14 C256.69 221.1, 332.24 134.38, 408.27 47.5 M179.96 310.14 C251.48 228.45, 323.48 146, 408.27 47.5 M184.95 310.5 C259.03 222.81, 331.26 137.8, 408.01 53.9 M184.95 310.5 C245.03 240.89, 303.7 173.66, 408.01 53.9 M189.93 310.86 C245.51 244.49, 303.13 179.18, 407.75 60.29 M189.93 310.86 C233.12 259.72, 277.5 209.43, 407.75 60.29 M195.58 310.46 C270.81 221.57, 347.29 133.23, 408.14 65.94 M195.58 310.46 C257.43 242.25, 316.61 172.95, 408.14 65.94 M200.56 310.82 C251.21 251.55, 301.11 191.96, 407.88 72.34 M200.56 310.82 C274.56 225.03, 348.32 139.81, 407.88 72.34 M206.21 310.43 C278.55 227.37, 349.26 145.72, 408.27 77.98 M206.21 310.43 C268.38 241.13, 329.23 170.8, 408.27 77.98 M211.19 310.79 C273.95 237.19, 335.58 165.12, 408.01 84.38 M211.19 310.79 C287.25 223.6, 363.78 136.09, 408.01 84.38 M216.84 310.39 C289.87 229.61, 363.37 145.92, 407.75 90.77 M216.84 310.39 C290.63 224.99, 366.34 138.62, 407.75 90.77 M221.82 310.75 C290.97 228.35, 364.06 147.28, 408.14 96.42 M221.82 310.75 C296.61 225.85, 369.19 141.76, 408.14 96.42 M227.47 310.36 C266.61 267.4, 307.66 221.02, 407.88 102.82 M227.47 310.36 C275.75 257.81, 323.1 202.72, 407.88 102.82 M232.45 310.72 C291.53 240.63, 355.25 169.81, 408.28 108.46 M232.45 310.72 C280.18 258.96, 325.68 205.41, 408.28 108.46 M238.1 310.33 C291.84 247.99, 344.17 189.12, 408.02 114.86 M238.1 310.33 C295.18 243.54, 355.61 175.36, 408.02 114.86 M243.08 310.69 C277.92 270.15, 313.21 231.43, 407.75 121.25 M243.08 310.69 C302.17 242.2, 362.77 173.53, 407.75 121.25 M248.73 310.29 C284.28 268.09, 322.78 225.84, 408.15 126.9 M248.73 310.29 C301.2 250.3, 354.08 191.58, 408.15 126.9 M253.71 310.65 C307.98 250.99, 359.35 191.8, 407.89 133.29 M253.71 310.65 C292.16 266.27, 330.7 221.76, 407.89 133.29 M259.36 310.26 C316.12 244.4, 374.43 177.52, 408.28 138.94 M259.36 310.26 C291.56 274.75, 323.7 237.05, 408.28 138.94 M264.34 310.62 C295.7 275.23, 324.8 240.5, 408.02 145.34 M264.34 310.62 C317.48 247.7, 370.61 186.2, 408.02 145.34 M269.99 310.22 C313.86 257.32, 361.66 204.38, 407.76 151.73 M269.99 310.22 C303.95 269.04, 339.69 230.04, 407.76 151.73 M274.97 310.58 C310.56 266.59, 347.96 223.98, 408.15 157.38 M274.97 310.58 C323.03 255.47, 370.87 199.99, 408.15 157.38 M280.62 310.19 C315.86 274.28, 347.02 236.14, 407.89 163.77 M280.62 310.19 C310.48 274.98, 340.14 239.73, 407.89 163.77 M285.6 310.55 C319 269.94, 358.9 227.96, 408.29 169.42 M285.6 310.55 C325.62 265.8, 362.67 221.02, 408.29 169.42 M291.25 310.15 C324.85 271.01, 361.16 231.91, 408.03 175.81 M291.25 310.15 C337.39 259.5, 379.98 208.11, 408.03 175.81 M296.23 310.51 C339.46 259.56, 386.15 208.09, 407.76 182.21 M296.23 310.51 C334.71 265.15, 374.21 220.18, 407.76 182.21 M301.22 310.87 C323.27 285.3, 344.83 261.8, 408.16 187.86 M301.22 310.87 C325.98 282.76, 351.42 253.44, 408.16 187.86 M306.86 310.48 C345.7 265.35, 386.12 216.88, 407.9 194.25 M306.86 310.48 C333.16 280.84, 359.44 250.12, 407.9 194.25 M311.85 310.84 C339.2 278.81, 370.27 244.62, 408.29 199.9 M311.85 310.84 C349.77 266.85, 387.8 221.01, 408.29 199.9 M317.49 310.44 C347.19 277.86, 375.86 242.96, 408.03 206.29 M317.49 310.44 C352.17 268.67, 387.49 227.88, 408.03 206.29 M322.48 310.8 C349.73 277.76, 378.91 244.62, 407.77 212.69 M322.48 310.8 C357.59 271.62, 391.58 233.48, 407.77 212.69 M328.12 310.41 C349.2 285.32, 371.87 259.94, 408.16 218.34 M328.12 310.41 C346.78 290.29, 364.24 268.76, 408.16 218.34 M333.11 310.77 C361.53 277.56, 391.48 244.06, 407.9 224.73 M333.11 310.77 C364.26 276.37, 392.98 240.88, 407.9 224.73 M338.75 310.38 C361.39 284.25, 386.97 254.59, 408.3 230.38 M338.75 310.38 C365.97 277.65, 394.23 247.88, 408.3 230.38 M343.74 310.74 C367.59 282.98, 389.4 258.37, 408.04 236.77 M343.74 310.74 C362.3 290.03, 380.69 267.87, 408.04 236.77 M349.39 310.34 C367.52 290.87, 386.62 266.23, 407.77 243.17 M349.39 310.34 C364 294.2, 377.95 278.87, 407.77 243.17 M354.37 310.7 C375.11 289.08, 392.17 263.77, 408.17 248.81 M354.37 310.7 C366.92 296.52, 380.78 282.83, 408.17 248.81 M360.02 310.31 C378.27 291.99, 392.85 270.78, 407.91 255.21 M360.02 310.31 C371.07 296.43, 383.49 281.84, 407.91 255.21 M365 310.67 C375.93 299.28, 387.25 282.97, 408.3 260.86 M365 310.67 C377.01 296.34, 389.96 282.99, 408.3 260.86 M370.65 310.27 C384.31 295.9, 397.14 283.11, 408.04 267.25 M370.65 310.27 C381.06 299.37, 390.81 286.65, 408.04 267.25 M375.63 310.63 C386.83 297.96, 395.05 285.36, 407.78 273.65 M375.63 310.63 C385.84 297.61, 396.24 285.62, 407.78 273.65 M381.93 309.48 C388.59 302.1, 395.11 291.84, 407.52 280.05 M381.93 309.48 C387.88 302.77, 394.66 293.13, 407.52 280.05 M388.23 308.33 C394.63 298.18, 404.12 289.8, 406.6 287.2 M388.23 308.33 C392.46 303.2, 397.2 296.58, 406.6 287.2 M397.81 303.41 C400.07 302.04, 402.09 299.96, 403.06 297.37 M397.81 303.41 C399.38 301.15, 401.03 299.8, 403.06 297.37" stroke="#ffec99" stroke-width="0.5" fill="none"></path><path d="M32 0 C146.29 2.25, 259.28 0.55, 375.36 0 M32 0 C144.83 2.64, 256.13 2.32, 375.36 0 M375.36 0 C397.27 -0.88, 407.36 10.68, 407.36 32 M375.36 0 C396.55 -1.98, 408.49 8.94, 407.36 32 M407.36 32 C406.8 103.99, 409.24 176.06, 407.36 278 M407.36 32 C408.64 106.29, 408.49 179.17, 407.36 278 M407.36 278 C409.28 299.84, 394.88 310.27, 375.36 310 M407.36 278 C409.06 300.77, 395.03 309.05, 375.36 310 M375.36 310 C270.7 309.38, 165.26 309.85, 32 310 M375.36 310 C252.44 309.85, 131.19 310.49, 32 310 M32 310 C11.3 308.3, -1.41 300.43, 0 278 M32 310 C11.11 310.48, -1.33 299.43, 0 278 M0 278 C1.54 192.83, -0.56 108.11, 0 32 M0 278 C-0.02 209.55, -0.86 142.96, 0 32 M0 32 C-0.01 10.51, 9.33 1.57, 32 0 M0 32 C-1.25 9.42, 12.61 -1.45, 32 0" stroke="#1e1e1e" stroke-width="1" fill="none"></path></g><g transform="translate(324.01401935669514 555.6784962172951) rotate(0 174.60980224609375 150)"><text x="0" y="17.52" font-family="Virgil, Segoe UI Emoji" font-size="20px" fill="#1e1e1e" text-anchor="start" style="white-space: pre;" direction="ltr" dominant-baseline="alphabetic">{</text><text x="0" y="42.519999999999996" font-family="Virgil, Segoe UI Emoji" font-size="20px" fill="#1e1e1e" text-anchor="start" style="white-space: pre;" direction="ltr" dominant-baseline="alphabetic">  "routes": [</text><text x="0" y="67.52" font-family="Virgil, Segoe UI Emoji" font-size="20px" fill="#1e1e1e" text-anchor="start" style="white-space: pre;" direction="ltr" dominant-baseline="alphabetic">    {</text><text x="0" y="92.52" font-family="Virgil, Segoe UI Emoji" font-size="20px" fill="#1e1e1e" text-anchor="start" style="white-space: pre;" direction="ltr" dominant-baseline="alphabetic">      "type": "azure_blob_storage",</text><text x="0" y="117.52" font-family="Virgil, Segoe UI Emoji" font-size="20px" fill="#1e1e1e" text-anchor="start" style="white-space: pre;" direction="ltr" dominant-baseline="alphabetic">      "method": {</text><text x="0" y="142.52" font-family="Virgil, Segoe UI Emoji" font-size="20px" fill="#1e1e1e" text-anchor="start" style="white-space: pre;" direction="ltr" dominant-baseline="alphabetic">        "account": "my-account",</text><text x="0" y="167.52" font-family="Virgil, Segoe UI Emoji" font-size="20px" fill="#1e1e1e" text-anchor="start" style="white-space: pre;" direction="ltr" dominant-baseline="alphabetic">        "container": "c1",</text><text x="0" y="192.52" font-family="Virgil, Segoe UI Emoji" font-size="20px" fill="#1e1e1e" text-anchor="start" style="white-space: pre;" direction="ltr" dominant-baseline="alphabetic">        "name": "important/cats.zip"</text><text x="0" y="217.52" font-family="Virgil, Segoe UI Emoji" font-size="20px" fill="#1e1e1e" text-anchor="start" style="white-space: pre;" direction="ltr" dominant-baseline="alphabetic">      }</text><text x="0" y="242.52" font-family="Virgil, Segoe UI Emoji" font-size="20px" fill="#1e1e1e" text-anchor="start" style="white-space: pre;" direction="ltr" dominant-baseline="alphabetic">    }</text><text x="0" y="267.52" font-family="Virgil, Segoe UI Emoji" font-size="20px" fill="#1e1e1e" text-anchor="start" style="white-space: pre;" direction="ltr" dominant-baseline="alphabetic">  ]</text><text x="0" y="292.52" font-family="Virgil, Segoe UI Emoji" font-size="20px" fill="#1e1e1e" text-anchor="start" style="white-space: pre;" direction="ltr" dominant-baseline="alphabetic">}</text></g><g stroke-linecap="round"><g transform="translate(130.84631829987444 537.2157880706486) rotate(0 72.34348600798589 -53.10206293741703)"><path d="M-0.49 0.33 C8.27 -10.22, 29.32 -46.79, 53.59 -64.28 C77.87 -81.77, 130.24 -97.79, 145.17 -104.61 M1.46 -0.55 C10.05 -10.91, 29.23 -45.69, 53.13 -63.35 C77.02 -81.02, 129.87 -99.76, 144.82 -106.53" stroke="#1e1e1e" stroke-width="1" fill="none"></path></g><g transform="translate(130.84631829987444 537.2157880706486) rotate(0 72.34348600798589 -53.10206293741703)"><path d="M126.33 -89.71 C134.19 -94.63, 138.87 -101.37, 144.82 -106.53 M126.33 -89.71 C133.57 -96.35, 140.06 -102.08, 144.82 -106.53" stroke="#1e1e1e" stroke-width="1" fill="none"></path></g><g transform="translate(130.84631829987444 537.2157880706486) rotate(0 72.34348600798589 -53.10206293741703)"><path d="M119.84 -105.53 C130.08 -104.29, 137.29 -104.9, 144.82 -106.53 M119.84 -105.53 C129.3 -106.38, 138.17 -106.31, 144.82 -106.53" stroke="#1e1e1e" stroke-width="1" fill="none"></path></g></g><mask></mask><g stroke-linecap="round"><g transform="translate(446.5049403218078 434.2260352085282) rotate(0 65.2968005126873 50.8783669434215)"><path d="M0.91 -1.16 C14.88 3.5, 62.05 11.24, 83.29 28.34 C104.54 45.45, 120.62 89.42, 128.39 101.49 M-0.06 0.84 C13.85 5.14, 60.97 9.63, 82.76 26.64 C104.54 43.66, 122.72 90.43, 130.66 102.92" stroke="#1e1e1e" stroke-width="1" fill="none"></path></g><g transform="translate(446.5049403218078 434.2260352085282) rotate(0 65.2968005126873 50.8783669434215)"><path d="M112.26 86 C115.14 91.56, 123.19 92.65, 130.66 102.92 M112.26 86 C118.16 91.47, 123.96 95.99, 130.66 102.92" stroke="#1e1e1e" stroke-width="1" fill="none"></path></g><g transform="translate(446.5049403218078 434.2260352085282) rotate(0 65.2968005126873 50.8783669434215)"><path d="M127.44 78.13 C126.4 85.85, 130.51 88.98, 130.66 102.92 M127.44 78.13 C128.53 86.04, 129.5 93.07, 130.66 102.92" stroke="#1e1e1e" stroke-width="1" fill="none"></path></g></g><mask></mask><g stroke-linecap="round" transform="translate(10 887.8511981610941) rotate(0 118.02592827329022 17.5)"><path d="M0.78 4.65 C0.78 4.65, 0.78 4.65, 0.78 4.65 M0.78 4.65 C0.78 4.65, 0.78 4.65, 0.78 4.65 M0.52 11.05 C3.29 7.21, 6.92 5.19, 9.7 0.49 M0.52 11.05 C2.38 8.47, 5.06 6.69, 9.7 0.49 M0.26 17.45 C6.2 12.99, 12.69 6.64, 14.69 0.85 M0.26 17.45 C4.74 11.45, 10.01 4.92, 14.69 0.85 M0 23.85 C5.59 16.41, 16.31 7.52, 20.33 0.45 M0 23.85 C6.37 17.76, 12.15 9.7, 20.33 0.45 M1.7 27.98 C7.03 20.69, 14.21 16.44, 25.32 0.81 M1.7 27.98 C10.5 17.74, 18.65 10.2, 25.32 0.81 M2.75 32.87 C11.86 23.74, 18.75 16.82, 30.96 0.42 M2.75 32.87 C10.72 23.91, 16.72 15.32, 30.96 0.42 M6.43 34.74 C14.53 24.89, 22.86 14.71, 35.95 0.78 M6.43 34.74 C13.43 25.11, 21.44 16.54, 35.95 0.78 M10.1 36.61 C21.22 22.44, 35.19 9.62, 41.59 0.38 M10.1 36.61 C20.46 22.62, 31.55 10.35, 41.59 0.38 M15.75 36.21 C25.99 24.72, 32.78 14.46, 46.58 0.74 M15.75 36.21 C27.94 22.89, 40.13 8.01, 46.58 0.74 M20.73 36.57 C33.46 24.4, 42.1 12.43, 52.22 0.35 M20.73 36.57 C28.31 28.2, 35.21 20.05, 52.22 0.35 M26.38 36.18 C37.08 25.23, 45.67 11.87, 57.21 0.71 M26.38 36.18 C37.41 23.86, 48.04 9.96, 57.21 0.71 M31.36 36.54 C42.19 23.26, 52.76 8.04, 62.85 0.31 M31.36 36.54 C43.1 23.25, 54.97 11.1, 62.85 0.31 M37.01 36.14 C42.91 30.2, 47.91 22.11, 67.84 0.67 M37.01 36.14 C50.49 20.91, 61.89 7.34, 67.84 0.67 M41.99 36.5 C47.68 31.54, 53.7 21.46, 72.83 1.03 M41.99 36.5 C51.51 26.25, 59.58 15.39, 72.83 1.03 M47.64 36.11 C57.57 25.36, 65.49 15, 78.47 0.64 M47.64 36.11 C56.66 25.75, 68.24 12.63, 78.47 0.64 M52.62 36.47 C64.18 24.43, 75.86 10.38, 83.46 1 M52.62 36.47 C59.3 28.42, 65.72 21.35, 83.46 1 M58.27 36.08 C64.42 27.54, 70.69 21.77, 89.1 0.6 M58.27 36.08 C68.44 24.46, 79.66 12.2, 89.1 0.6 M63.25 36.44 C73.87 23.57, 84.51 14.06, 94.09 0.96 M63.25 36.44 C72.45 25.34, 81.63 14.6, 94.09 0.96 M68.9 36.04 C77.6 24.53, 87.6 16.83, 99.73 0.57 M68.9 36.04 C76.11 27.84, 83.81 19.38, 99.73 0.57 M73.88 36.4 C82.26 26.51, 92.33 15.21, 104.72 0.93 M73.88 36.4 C80.9 26.84, 88.51 18.36, 104.72 0.93 M79.53 36.01 C86.68 27.53, 90.9 21.23, 110.36 0.53 M79.53 36.01 C91.02 21.66, 102.59 8.9, 110.36 0.53 M84.51 36.37 C92.47 29.54, 97.4 21.18, 115.35 0.89 M84.51 36.37 C93.37 26.33, 102.97 13.99, 115.35 0.89 M89.5 36.73 C98.84 24.44, 110.18 12.71, 120.99 0.5 M89.5 36.73 C100.48 23.99, 113.13 9.96, 120.99 0.5 M95.14 36.33 C100.62 28.9, 109.95 19.46, 125.98 0.86 M95.14 36.33 C101.73 27.87, 109.56 21.19, 125.98 0.86 M100.13 36.69 C106.39 30.31, 112.43 19.27, 131.62 0.47 M100.13 36.69 C111.29 24.47, 122.39 10.59, 131.62 0.47 M105.77 36.3 C109.88 29.08, 117.27 20.61, 136.61 0.83 M105.77 36.3 C115.93 23.54, 127.54 10.24, 136.61 0.83 M110.76 36.66 C121.07 24.44, 128.16 13.27, 142.25 0.43 M110.76 36.66 C121.16 25.92, 130.54 14.37, 142.25 0.43 M116.4 36.26 C122.56 27.16, 128.94 23.95, 147.24 0.79 M116.4 36.26 C126.2 23.81, 137.05 12.56, 147.24 0.79 M121.39 36.62 C130.93 26.67, 136.62 18.66, 152.88 0.4 M121.39 36.62 C131.65 25.75, 142.23 14.21, 152.88 0.4 M127.03 36.23 C135.36 25.38, 145.04 13.68, 157.87 0.76 M127.03 36.23 C137.55 22.7, 149.65 9.69, 157.87 0.76 M132.02 36.59 C142.74 24.62, 153.19 10.91, 163.51 0.36 M132.02 36.59 C143.63 23.28, 154.87 12.24, 163.51 0.36 M137.66 36.19 C149.21 23.49, 156.72 13.89, 168.5 0.72 M137.66 36.19 C149.6 23.06, 160.45 8.56, 168.5 0.72 M142.65 36.55 C152.27 25.68, 161.07 16.91, 174.14 0.33 M142.65 36.55 C151.15 25.49, 161.6 14.01, 174.14 0.33 M148.29 36.16 C157.56 25.19, 169.97 13.24, 179.13 0.69 M148.29 36.16 C156.25 27.03, 162.99 19.24, 179.13 0.69 M153.28 36.52 C163.9 27.22, 171.06 16.75, 184.12 1.05 M153.28 36.52 C162.7 26.38, 171.82 15.09, 184.12 1.05 M158.92 36.12 C168.28 23.34, 178.2 12.85, 189.76 0.65 M158.92 36.12 C170.69 22.09, 183.66 9.35, 189.76 0.65 M163.91 36.48 C175.04 23.92, 182.89 12.33, 194.75 1.01 M163.91 36.48 C170.94 29.39, 178.09 20.74, 194.75 1.01 M169.55 36.09 C180.32 24.63, 190 11.34, 200.39 0.62 M169.55 36.09 C179.7 23.43, 191.98 10.43, 200.39 0.62 M174.54 36.45 C183.15 27.04, 188.23 19.4, 205.38 0.98 M174.54 36.45 C185.81 24.45, 195.66 11.28, 205.38 0.98 M180.18 36.06 C188.9 23.97, 199.26 10.9, 211.02 0.58 M180.18 36.06 C186.67 28.64, 193.62 18.61, 211.02 0.58 M185.17 36.42 C192.19 26.93, 199.39 16.32, 216.01 0.94 M185.17 36.42 C196.24 23.43, 209.12 9.69, 216.01 0.94 M190.81 36.02 C197.73 24.89, 208.49 13.97, 221.65 0.55 M190.81 36.02 C198.81 27.08, 206.42 16.55, 221.65 0.55 M195.8 36.38 C207.71 25.35, 216.75 12.29, 227.29 0.16 M195.8 36.38 C207.35 22.58, 217.53 10.95, 227.29 0.16 M201.44 35.99 C214.15 22.46, 222.76 11.07, 231.62 1.27 M201.44 35.99 C212.9 21.82, 224.41 9.49, 231.62 1.27 M206.43 36.35 C213.96 29.76, 217.34 21, 234.64 3.89 M206.43 36.35 C216.21 26.25, 224.73 15.89, 234.64 3.89 M211.42 36.71 C217.69 25.17, 226.56 16.61, 237.66 6.52 M211.42 36.71 C220.73 26.18, 230.08 14.57, 237.66 6.52 M217.06 36.31 C223.01 31.98, 228.04 23.65, 237.4 12.92 M217.06 36.31 C224.28 27.76, 229.87 20.99, 237.4 12.92 M222.05 36.67 C225.54 32.9, 231.69 25.21, 237.79 18.56 M222.05 36.67 C227.88 29.35, 234.5 21.78, 237.79 18.56 M228.35 35.52 C230.37 32.63, 233.54 29.77, 236.22 26.47 M228.35 35.52 C230.23 33.42, 231.41 32.21, 236.22 26.47" stroke="#ffec99" stroke-width="0.5" fill="none"></path><path d="M8.75 0 C84.24 -0.55, 156.17 0.62, 227.3 0 M8.75 0 C81.3 -0.11, 154.66 -1.66, 227.3 0 M227.3 0 C234.28 1.6, 235.58 3.69, 236.05 8.75 M227.3 0 C232.88 -0.68, 238.29 4.55, 236.05 8.75 M236.05 8.75 C237 12.07, 235.82 15.33, 236.05 26.25 M236.05 8.75 C236.92 13.28, 236.63 18.45, 236.05 26.25 M236.05 26.25 C234.73 31.62, 231.2 35.76, 227.3 35 M236.05 26.25 C237.48 33.13, 234.25 36.74, 227.3 35 M227.3 35 C169.04 33.2, 113.57 33.92, 8.75 35 M227.3 35 C149.17 36.06, 70.8 36.44, 8.75 35 M8.75 35 C3.02 34.09, -0.57 32.44, 0 26.25 M8.75 35 C1.91 32.83, -0.47 31.61, 0 26.25 M0 26.25 C-0.01 19.22, -1.18 14.02, 0 8.75 M0 26.25 C-0.11 20.63, 0.35 17.29, 0 8.75 M0 8.75 C0.59 4, 2.53 1.16, 8.75 0 M0 8.75 C0.6 3.04, 3.33 1.04, 8.75 0" stroke="#1e1e1e" stroke-width="1" fill="none"></path></g><g transform="translate(15 892.8511981610941) rotate(0 72.659912109375 12.5)"><text x="0" y="17.52" font-family="Virgil, Segoe UI Emoji" font-size="20px" fill="#1e1e1e" text-anchor="start" style="white-space: pre;" direction="ltr" dominant-baseline="alphabetic">GET /cid/baf..</text></g><g stroke-linecap="round" transform="translate(316.68185064574527 884.216083418251) rotate(0 203.6818762184629 130)"><path d="M7.86 8.16 C7.86 8.16, 7.86 8.16, 7.86 8.16 M7.86 8.16 C7.86 8.16, 7.86 8.16, 7.86 8.16 M3.66 19.09 C6.04 14.18, 12.15 9.23, 18.1 2.48 M3.66 19.09 C8.03 14.75, 11.24 10.69, 18.1 2.48 M2.75 26.24 C12.45 17.82, 20.89 5.07, 24.4 1.33 M2.75 26.24 C10.86 18.49, 17.48 8.85, 24.4 1.33 M2.48 32.64 C12.53 18.79, 24.99 9.02, 30.7 0.18 M2.48 32.64 C12.87 19.8, 24.96 7.14, 30.7 0.18 M2.88 38.28 C11.64 26.55, 21.07 20.24, 34.37 2.05 M2.88 38.28 C8.52 30.35, 16.41 24.21, 34.37 2.05 M2.62 44.68 C11.39 31.63, 23.95 22.61, 39.36 2.41 M2.62 44.68 C12.75 34.3, 22.76 22.15, 39.36 2.41 M2.36 51.07 C16.37 34.02, 33.05 16.15, 45 2.02 M2.36 51.07 C14.44 38.77, 23.92 25.45, 45 2.02 M2.75 56.72 C15.35 44.46, 27.82 28.07, 49.99 2.38 M2.75 56.72 C13.48 44.79, 22.77 33.54, 49.99 2.38 M2.49 63.11 C18.44 47.32, 31.89 32.32, 55.63 1.98 M2.49 63.11 C22.2 41.91, 40.09 19.58, 55.63 1.98 M2.23 69.51 C19.47 48.27, 41.6 27.87, 60.62 2.34 M2.23 69.51 C18.34 51.76, 34.08 32.51, 60.62 2.34 M2.62 75.16 C27.12 48.78, 46.68 22.53, 66.26 1.95 M2.62 75.16 C25.28 50.74, 46.61 26.06, 66.26 1.95 M2.36 81.55 C25.57 58.03, 45.08 34.06, 71.25 2.31 M2.36 81.55 C19.03 59.46, 37.78 38.51, 71.25 2.31 M2.76 87.2 C31.89 54.89, 58.01 28.16, 76.89 1.91 M2.76 87.2 C17.89 69.8, 34.05 50.25, 76.89 1.91 M2.49 93.59 C34.09 59.48, 64.07 23.03, 81.88 2.27 M2.49 93.59 C25.29 67.86, 49.15 42.14, 81.88 2.27 M2.23 99.99 C24.56 76.9, 44.4 47.91, 87.52 1.88 M2.23 99.99 C36.65 61.95, 68.93 21.68, 87.52 1.88 M2.63 105.64 C36.87 64.56, 73.24 23.7, 92.51 2.24 M2.63 105.64 C23.15 80.76, 45.64 56.14, 92.51 2.24 M2.37 112.03 C28.78 81.85, 52.62 53.17, 98.15 1.85 M2.37 112.03 C31.69 77.15, 61.86 43.8, 98.15 1.85 M2.1 118.43 C26.69 90.42, 53.06 60.53, 103.14 2.21 M2.1 118.43 C32.78 84.04, 64.18 48.28, 103.14 2.21 M2.5 124.07 C25.52 92.8, 53.12 64.79, 108.78 1.81 M2.5 124.07 C35.91 85.22, 70.83 45.88, 108.78 1.81 M2.24 130.47 C38.57 86.04, 78.93 42.18, 113.77 2.17 M2.24 130.47 C30.69 97.64, 60.12 66.07, 113.77 2.17 M2.63 136.11 C34.75 103.39, 62.67 68.33, 119.41 1.78 M2.63 136.11 C29 104.66, 56.88 75.15, 119.41 1.78 M2.37 142.51 C50.95 88.59, 96.48 32.4, 124.4 2.14 M2.37 142.51 C45.83 93.09, 88.35 43.94, 124.4 2.14 M2.11 148.91 C35.48 113.59, 64.39 74.2, 130.04 1.74 M2.11 148.91 C50.72 92.27, 100.33 34.78, 130.04 1.74 M2.5 154.55 C46.91 101.26, 94.02 47.89, 135.03 2.1 M2.5 154.55 C35.41 114.33, 70.37 74.81, 135.03 2.1 M2.24 160.95 C55.62 103.5, 104.67 43.48, 140.67 1.71 M2.24 160.95 C52.98 103.34, 104.9 43.02, 140.67 1.71 M1.98 167.35 C48.28 117.06, 92.04 63.86, 145.66 2.07 M1.98 167.35 C46.11 117.01, 90.09 67.77, 145.66 2.07 M2.38 172.99 C38.56 133.76, 72.72 95.22, 150.65 2.43 M2.38 172.99 C45.94 121.98, 92.44 69.11, 150.65 2.43 M2.11 179.39 C33.6 140.9, 63.62 104.95, 156.29 2.03 M2.11 179.39 C36.49 139.37, 71.28 100.78, 156.29 2.03 M2.51 185.03 C42.71 138.71, 82.74 94.51, 161.28 2.39 M2.51 185.03 C58.51 119.07, 115.72 52.17, 161.28 2.39 M2.25 191.43 C50.8 138.16, 95.9 82.31, 166.92 2 M2.25 191.43 C41.63 147.3, 80.63 102.58, 166.92 2 M1.99 197.83 C54.28 137.96, 105.29 80.31, 171.91 2.36 M1.99 197.83 C40.92 151.38, 80.9 106.13, 171.91 2.36 M2.38 203.47 C50.16 149.36, 96.17 97.71, 177.55 1.96 M2.38 203.47 C64.61 132.99, 125.4 63.12, 177.55 1.96 M2.12 209.87 C53.56 150.11, 103.36 90.07, 182.54 2.32 M2.12 209.87 C49.65 157.57, 96.32 102.3, 182.54 2.32 M1.86 216.27 C67.57 139.41, 133.97 61.74, 188.18 1.93 M1.86 216.27 C51.7 159.23, 100.78 103.44, 188.18 1.93 M2.25 221.91 C68.07 146.9, 132.95 70.27, 193.17 2.29 M2.25 221.91 C64.25 151.54, 125.67 78.83, 193.17 2.29 M1.33 229.06 C53.7 171.53, 101.19 113.48, 198.81 1.9 M1.33 229.06 C51.26 168.75, 102.22 111.03, 198.81 1.9 M1.73 234.71 C51.42 177.9, 101.94 121.27, 203.8 2.26 M1.73 234.71 C70.72 154.87, 140.58 74.59, 203.8 2.26 M2.78 239.59 C76.18 158.12, 146.8 73.58, 209.44 1.86 M2.78 239.59 C66.59 164.72, 132.52 90.8, 209.44 1.86 M4.49 243.73 C51.55 191.58, 97.47 138.3, 214.43 2.22 M4.49 243.73 C85.66 152.09, 165.11 60.2, 214.43 2.22 M6.19 247.86 C66.99 179.71, 128.69 108.42, 220.07 1.83 M6.19 247.86 C92.03 151.85, 176.72 54.32, 220.07 1.83 M8.56 251.24 C74.56 180.17, 136.18 106.25, 225.06 2.19 M8.56 251.24 C75.79 172.72, 144.45 92.3, 225.06 2.19 M10.92 254.62 C63.56 194.36, 117.55 132.99, 230.7 1.79 M10.92 254.62 C90.3 165.84, 167.38 77.23, 230.7 1.79 M13.94 257.24 C97.15 161.65, 178.28 68.96, 235.69 2.15 M13.94 257.24 C60.89 205.06, 105.07 153.66, 235.69 2.15 M18.27 258.36 C72.59 198.99, 122.74 136.96, 241.33 1.76 M18.27 258.36 C70.66 198.02, 122.84 138.64, 241.33 1.76 M22.6 259.47 C101.38 170.68, 177.2 83.75, 246.32 2.12 M22.6 259.47 C91.31 180.66, 160.27 100.39, 246.32 2.12 M26.27 261.34 C76.95 205.73, 125.93 149.82, 251.96 1.72 M26.27 261.34 C108.57 166.73, 190.43 73.13, 251.96 1.72 M32.57 260.19 C122.82 157.77, 212.55 54.86, 256.95 2.08 M32.57 260.19 C88.62 196.97, 143.46 133.04, 256.95 2.08 M37.56 260.55 C119.95 167.62, 201.52 72.42, 262.59 1.69 M37.56 260.55 C96.81 192.32, 157.4 123.65, 262.59 1.69 M43.2 260.16 C109.18 182.51, 177.47 105.5, 267.58 2.05 M43.2 260.16 C104.3 189.54, 164.09 121.38, 267.58 2.05 M48.19 260.52 C94.3 208.34, 140.51 152.71, 272.56 2.41 M48.19 260.52 C128.63 169.21, 207.65 78, 272.56 2.41 M53.83 260.12 C124.15 182.22, 189.27 103.96, 278.21 2.01 M53.83 260.12 C137.28 163.88, 219.81 70.56, 278.21 2.01 M58.82 260.48 C126.98 182.41, 194.66 105.38, 283.19 2.37 M58.82 260.48 C110.55 202.31, 159.56 146.16, 283.19 2.37 M64.46 260.09 C118.16 198.55, 171.58 135.99, 288.84 1.98 M64.46 260.09 C148.45 162.27, 231.55 66.61, 288.84 1.98 M69.45 260.45 C144.44 172.23, 222.6 86.89, 293.82 2.34 M69.45 260.45 C149.98 167.75, 229.37 74.45, 293.82 2.34 M75.09 260.06 C128.36 200.45, 182.26 138.81, 299.47 1.94 M75.09 260.06 C134.27 194.36, 192.72 127.98, 299.47 1.94 M80.08 260.42 C136.49 196.93, 190.88 132.51, 304.45 2.3 M80.08 260.42 C135.28 196.26, 190.57 133.5, 304.45 2.3 M85.72 260.02 C131.1 206.77, 177.63 152.82, 310.1 1.91 M85.72 260.02 C136.97 201.89, 188.44 141.9, 310.1 1.91 M90.71 260.38 C160.32 184.27, 226.72 105.47, 315.08 2.27 M90.71 260.38 C145.59 199.37, 199.29 138.27, 315.08 2.27 M95.7 260.74 C172.26 172.4, 249.96 83.72, 320.73 1.88 M95.7 260.74 C148.29 199.41, 201.96 137.88, 320.73 1.88 M101.34 260.35 C191.33 159.2, 279.94 55.45, 325.71 2.24 M101.34 260.35 C170.63 183.29, 238.34 104.16, 325.71 2.24 M106.33 260.71 C157.93 201.37, 209.85 143.68, 331.36 1.84 M106.33 260.71 C167.11 190.73, 228.32 120.8, 331.36 1.84 M111.97 260.31 C194.71 164.17, 277.75 69.54, 336.34 2.2 M111.97 260.31 C172.85 186.81, 236.02 115.38, 336.34 2.2 M116.96 260.67 C192.05 176.53, 267.48 89.35, 341.99 1.81 M116.96 260.67 C171.18 196.47, 227.16 132.6, 341.99 1.81 M122.6 260.28 C186.6 183.95, 253.26 106.25, 346.97 2.17 M122.6 260.28 C213.53 158.42, 303.14 55.84, 346.97 2.17 M127.59 260.64 C197.6 180.93, 265.48 102.29, 352.62 1.77 M127.59 260.64 C204.64 174.17, 281.14 86.16, 352.62 1.77 M133.23 260.24 C219.7 160.92, 303.32 63.24, 357.6 2.13 M133.23 260.24 C219.75 161.6, 305.99 61.27, 357.6 2.13 M138.22 260.6 C204.36 185.78, 269.86 111.25, 363.25 1.74 M138.22 260.6 C193.63 195.39, 248.87 131.29, 363.25 1.74 M143.86 260.21 C204.13 188.9, 265.56 119.91, 368.23 2.1 M143.86 260.21 C223.77 167.22, 303.6 76.7, 368.23 2.1 M148.85 260.57 C197.52 207.43, 245.28 151.48, 373.88 1.7 M148.85 260.57 C221.72 177.53, 293.19 93.94, 373.88 1.7 M154.49 260.17 C234.97 170.04, 313.58 80.3, 378.21 2.82 M154.49 260.17 C221.36 182.62, 288.53 105.51, 378.21 2.82 M159.48 260.53 C224.81 189.28, 287.95 114.57, 384.51 1.67 M159.48 260.53 C213.47 199.8, 265.55 139.24, 384.51 1.67 M165.12 260.14 C217.83 198.22, 270.6 137.34, 388.18 3.54 M165.12 260.14 C214.5 204.95, 261.85 150.78, 388.18 3.54 M170.11 260.5 C236.78 183.09, 302.23 106.57, 392.51 4.65 M170.11 260.5 C239.76 178.96, 309.66 98.45, 392.51 4.65 M175.75 260.11 C237.11 190.57, 299.39 116.45, 396.84 5.77 M175.75 260.11 C258.9 165.56, 342.29 69.67, 396.84 5.77 M180.74 260.47 C254.95 174.71, 330.71 87.95, 399.21 9.15 M180.74 260.47 C228.75 204.36, 278.73 147.98, 399.21 9.15 M186.38 260.07 C243.09 190.19, 301.79 122.91, 402.23 11.77 M186.38 260.07 C241 197.82, 294.24 134.83, 402.23 11.77 M191.37 260.43 C251.72 188.34, 313.78 117.67, 405.24 14.4 M191.37 260.43 C247.56 196.22, 301.58 134.41, 405.24 14.4 M197.01 260.04 C267.94 179.92, 338.64 97.08, 406.3 19.28 M197.01 260.04 C281.26 163.43, 363.58 67.68, 406.3 19.28 M202 260.4 C261.11 192.34, 322.01 123.73, 407.35 24.17 M202 260.4 C252.49 198.96, 304.75 139.48, 407.35 24.17 M207.64 260 C255.41 207.22, 301.26 153.08, 407.74 29.82 M207.64 260 C281.59 177.04, 354.28 93.66, 407.74 29.82 M212.63 260.36 C267.88 195.69, 323.08 132.34, 409.45 33.95 M212.63 260.36 C268.11 194.01, 325.76 128.51, 409.45 33.95 M217.62 260.72 C269.72 202.85, 318.83 145.86, 409.84 39.59 M217.62 260.72 C291.29 177.65, 363.97 95.15, 409.84 39.59 M223.26 260.33 C279.25 195.28, 336.99 131.09, 409.58 45.99 M223.26 260.33 C295.05 178.46, 366.84 94.62, 409.58 45.99 M228.25 260.69 C290.41 187.38, 356.05 114.79, 409.32 52.39 M228.25 260.69 C277.8 204.26, 326.98 148.84, 409.32 52.39 M233.89 260.29 C298.46 188.62, 358.79 114.44, 409.71 58.03 M233.89 260.29 C267.86 218.85, 302.96 178.61, 409.71 58.03 M238.88 260.65 C303.92 189.34, 368.08 115.22, 409.45 64.43 M238.88 260.65 C297.66 190.76, 356.46 122.38, 409.45 64.43 M244.52 260.26 C301.88 193.98, 356.94 128.14, 409.19 70.83 M244.52 260.26 C296.21 199.47, 349.02 138.19, 409.19 70.83 M249.51 260.62 C284.49 218.64, 322.66 176.32, 409.59 76.47 M249.51 260.62 C300.6 201.66, 351.2 141.74, 409.59 76.47 M255.15 260.22 C311.15 195.56, 366.04 133.37, 409.32 82.87 M255.15 260.22 C315.55 190.68, 374.38 122.12, 409.32 82.87 M260.14 260.58 C315.31 198.6, 370.57 134.85, 409.72 88.51 M260.14 260.58 C315.1 197.18, 370.36 132.7, 409.72 88.51 M265.78 260.19 C317.14 201.04, 367.89 138.79, 409.46 94.91 M265.78 260.19 C318.48 198.9, 371.55 138.32, 409.46 94.91 M270.77 260.55 C303.9 219.69, 339.96 181.22, 409.2 101.31 M270.77 260.55 C309.19 213.33, 349.28 168.35, 409.2 101.31 M276.41 260.15 C315.52 213.01, 358.02 163.1, 409.59 106.95 M276.41 260.15 C312.57 217.52, 351.6 173.59, 409.59 106.95 M281.4 260.51 C321.84 214.7, 361.59 171.15, 409.33 113.35 M281.4 260.51 C324.2 213.02, 366.15 164.49, 409.33 113.35 M287.04 260.12 C317.07 222.54, 352.06 186.71, 409.72 118.99 M287.04 260.12 C320.26 220.8, 353.66 183.37, 409.72 118.99 M292.03 260.48 C336.47 210.85, 379.92 158.8, 409.46 125.39 M292.03 260.48 C333.93 210.57, 377.25 160.68, 409.46 125.39 M297.67 260.09 C322.59 232.32, 345.96 202.23, 409.2 131.79 M297.67 260.09 C334.41 215.72, 372.22 174.56, 409.2 131.79 M302.66 260.45 C328.69 230.04, 356.24 203.36, 409.59 137.43 M302.66 260.45 C336.43 217.67, 373.66 177.63, 409.59 137.43 M308.3 260.05 C340.77 222.65, 374.99 187.34, 409.33 143.83 M308.3 260.05 C346.4 213.24, 388.35 166.98, 409.33 143.83 M313.29 260.41 C343.35 223.46, 377.01 189.09, 409.73 149.47 M313.29 260.41 C350.03 218.65, 385.61 176.62, 409.73 149.47 M318.93 260.02 C341.89 231.41, 368.12 203.69, 409.47 155.87 M318.93 260.02 C338.6 235.43, 360.26 213.16, 409.47 155.87 M323.92 260.38 C358.17 222.31, 389.6 183.53, 409.21 162.26 M323.92 260.38 C350.32 229.21, 378.46 197.35, 409.21 162.26 M328.9 260.74 C347.48 241.61, 364.37 219.52, 409.6 167.91 M328.9 260.74 C355.97 230.82, 382.59 199.85, 409.6 167.91 M334.55 260.34 C349.97 241.34, 365.27 222.9, 409.34 174.31 M334.55 260.34 C361.19 227.83, 389.62 194.92, 409.34 174.31 M339.53 260.7 C364.93 229.8, 390.45 200.13, 409.73 179.95 M339.53 260.7 C357.4 240, 375.52 219.59, 409.73 179.95 M345.18 260.31 C368.34 236.58, 390.41 209.97, 409.47 186.35 M345.18 260.31 C362.01 241.41, 377.86 223.39, 409.47 186.35 M350.16 260.67 C373.72 233.5, 394.44 208.19, 409.21 192.74 M350.16 260.67 C366.13 240.14, 383.41 220.14, 409.21 192.74 M355.81 260.27 C375.45 240.63, 389.19 222.05, 409.6 198.39 M355.81 260.27 C367.83 246.74, 380.53 233.15, 409.6 198.39 M360.79 260.63 C374.76 243.87, 390.85 229.92, 409.34 204.78 M360.79 260.63 C377.54 240.4, 395.9 220.57, 409.34 204.78 M366.44 260.24 C379.01 246.12, 387.79 233.72, 409.74 210.43 M366.44 260.24 C378.21 245.71, 392.21 230.82, 409.74 210.43 M371.42 260.6 C378.76 251.69, 387.54 239.52, 409.48 216.83 M371.42 260.6 C383.8 247.13, 396.28 232.15, 409.48 216.83 M376.41 260.96 C386.38 250.3, 396.04 236.63, 409.21 223.22 M376.41 260.96 C383.12 252.47, 390.27 243.82, 409.21 223.22 M382.71 259.81 C392.03 249.5, 400.9 240.89, 408.95 229.62 M382.71 259.81 C390.22 250.7, 397.63 241.8, 408.95 229.62 M389.67 257.91 C395.19 251.42, 400.25 243.18, 408.04 236.77 M389.67 257.91 C394.58 252.91, 400.08 246.49, 408.04 236.77" stroke="#ffec99" stroke-width="0.5" fill="none"></path><path d="M32 0 C111.88 0.07, 191.43 -0.4, 375.36 0 M32 0 C162.52 2.79, 292.12 2.52, 375.36 0 M375.36 0 C396.48 -0.6, 409.31 12.09, 407.36 32 M375.36 0 C394.96 1.57, 408.21 11.76, 407.36 32 M407.36 32 C406.04 84.87, 408.91 137.56, 407.36 228 M407.36 32 C407.8 92.63, 407.5 154.1, 407.36 228 M407.36 228 C408.61 250.24, 397.66 261.51, 375.36 260 M407.36 228 C406.49 248.09, 396.39 258.67, 375.36 260 M375.36 260 C303.59 259.95, 230.82 259.21, 32 260 M375.36 260 C261.56 261.4, 147.5 261.82, 32 260 M32 260 C9.79 258.11, -0.41 248.92, 0 228 M32 260 C12.18 261.14, -0.86 249.44, 0 228 M0 228 C0.72 176.65, 1.34 124.3, 0 32 M0 228 C-0.56 187.92, -1.05 147.34, 0 32 M0 32 C0.52 10.77, 11.02 0.9, 32 0 M0 32 C1.14 10.32, 12.53 0.42, 32 0" stroke="#1e1e1e" stroke-width="1" fill="none"></path></g><g transform="translate(321.68185064574527 889.216083418251) rotate(0 150.22982788085938 125)"><text x="0" y="17.52" font-family="Virgil, Segoe UI Emoji" font-size="20px" fill="#1e1e1e" text-anchor="start" style="white-space: pre;" direction="ltr" dominant-baseline="alphabetic">{</text><text x="0" y="42.519999999999996" font-family="Virgil, Segoe UI Emoji" font-size="20px" fill="#1e1e1e" text-anchor="start" style="white-space: pre;" direction="ltr" dominant-baseline="alphabetic">  "routes": [</text><text x="0" y="67.52" font-family="Virgil, Segoe UI Emoji" font-size="20px" fill="#1e1e1e" text-anchor="start" style="white-space: pre;" direction="ltr" dominant-baseline="alphabetic">    {</text><text x="0" y="92.52" font-family="Virgil, Segoe UI Emoji" font-size="20px" fill="#1e1e1e" text-anchor="start" style="white-space: pre;" direction="ltr" dominant-baseline="alphabetic">      "type": "iroh",</text><text x="0" y="117.52" font-family="Virgil, Segoe UI Emoji" font-size="20px" fill="#1e1e1e" text-anchor="start" style="white-space: pre;" direction="ltr" dominant-baseline="alphabetic">      "method": {</text><text x="0" y="142.52" font-family="Virgil, Segoe UI Emoji" font-size="20px" fill="#1e1e1e" text-anchor="start" style="white-space: pre;" direction="ltr" dominant-baseline="alphabetic">        "ticket": "blobaccbd3..."</text><text x="0" y="167.52" font-family="Virgil, Segoe UI Emoji" font-size="20px" fill="#1e1e1e" text-anchor="start" style="white-space: pre;" direction="ltr" dominant-baseline="alphabetic">      }</text><text x="0" y="192.52" font-family="Virgil, Segoe UI Emoji" font-size="20px" fill="#1e1e1e" text-anchor="start" style="white-space: pre;" direction="ltr" dominant-baseline="alphabetic">    }</text><text x="0" y="217.52" font-family="Virgil, Segoe UI Emoji" font-size="20px" fill="#1e1e1e" text-anchor="start" style="white-space: pre;" direction="ltr" dominant-baseline="alphabetic">  ]</text><text x="0" y="242.52" font-family="Virgil, Segoe UI Emoji" font-size="20px" fill="#1e1e1e" text-anchor="start" style="white-space: pre;" direction="ltr" dominant-baseline="alphabetic">}</text></g><g stroke-linecap="round" transform="translate(11.111111111111143 1173.9623092722054) rotate(0 118.02592827329019 17.5)"><path d="M0.78 4.65 C0.78 4.65, 0.78 4.65, 0.78 4.65 M0.78 4.65 C0.78 4.65, 0.78 4.65, 0.78 4.65 M0.52 11.05 C3.47 8.29, 6.05 4.8, 9.7 0.49 M0.52 11.05 C2.37 7.91, 5.65 5.99, 9.7 0.49 M0.26 17.45 C4.23 11.74, 10.69 6.49, 14.69 0.85 M0.26 17.45 C3.54 14.4, 6.44 10.24, 14.69 0.85 M0 23.85 C4.22 16.92, 12.59 8.65, 20.33 0.45 M0 23.85 C6.05 17.35, 12.2 9.86, 20.33 0.45 M1.7 27.98 C9.65 20.09, 15.66 10.43, 25.32 0.81 M1.7 27.98 C6.66 21.63, 10.98 17.34, 25.32 0.81 M2.75 32.87 C8.46 24.7, 14.38 18.84, 30.96 0.42 M2.75 32.87 C12.59 22.14, 21.43 11.75, 30.96 0.42 M6.43 34.74 C15.09 25.37, 21.91 15.67, 35.95 0.78 M6.43 34.74 C18.96 22.03, 29.19 7.16, 35.95 0.78 M10.1 36.61 C17.15 28.99, 25.57 21.1, 41.59 0.38 M10.1 36.61 C18.27 28.88, 24.8 19.6, 41.59 0.38 M15.75 36.21 C22.2 27.89, 32.43 15.58, 46.58 0.74 M15.75 36.21 C21.86 28.61, 28.51 22.03, 46.58 0.74 M20.73 36.57 C31.73 24.65, 45.14 10.61, 52.22 0.35 M20.73 36.57 C27.94 27.89, 35.45 19.15, 52.22 0.35 M26.38 36.18 C39.25 24.35, 48.71 7.06, 57.21 0.71 M26.38 36.18 C35.24 25.98, 44.52 16.8, 57.21 0.71 M31.36 36.54 C39.29 24.14, 50.98 12.67, 62.85 0.31 M31.36 36.54 C42.75 24.85, 53.19 12.14, 62.85 0.31 M37.01 36.14 C47.27 27.09, 53.6 16.47, 67.84 0.67 M37.01 36.14 C46.55 24.53, 58.2 12.42, 67.84 0.67 M41.99 36.5 C50.14 24.3, 61.23 13.52, 72.83 1.03 M41.99 36.5 C52.8 24.26, 63.78 11.16, 72.83 1.03 M47.64 36.11 C60.28 21.39, 71.89 10.57, 78.47 0.64 M47.64 36.11 C56.73 25.08, 64.75 14.76, 78.47 0.64 M52.62 36.47 C62.78 23.25, 74.7 8.86, 83.46 1 M52.62 36.47 C59.87 27.22, 69.24 18.05, 83.46 1 M58.27 36.08 C66.71 29.71, 71.71 20.61, 89.1 0.6 M58.27 36.08 C67.49 24.39, 78.44 14.02, 89.1 0.6 M63.25 36.44 C76.07 24.29, 86.95 8.52, 94.09 0.96 M63.25 36.44 C71.96 27, 79.82 17.8, 94.09 0.96 M68.9 36.04 C78.39 26.33, 84.09 17.56, 99.73 0.57 M68.9 36.04 C75.93 28.66, 81.66 20.96, 99.73 0.57 M73.88 36.4 C83.37 26.69, 92.57 16.59, 104.72 0.93 M73.88 36.4 C82.2 27.79, 90.48 17.94, 104.72 0.93 M79.53 36.01 C89.88 25.47, 101.83 12.59, 110.36 0.53 M79.53 36.01 C86.17 27.05, 94.32 18.64, 110.36 0.53 M84.51 36.37 C96.01 24.06, 105.46 13.54, 115.35 0.89 M84.51 36.37 C92.62 28.18, 99.73 19.64, 115.35 0.89 M89.5 36.73 C97.93 27.05, 104.78 17.74, 120.99 0.5 M89.5 36.73 C97.94 27.8, 104.84 18.14, 120.99 0.5 M95.14 36.33 C106.28 26.87, 114.29 12.49, 125.98 0.86 M95.14 36.33 C105.93 24.38, 114.4 13.33, 125.98 0.86 M100.13 36.69 C108.93 27.64, 114.02 19.91, 131.62 0.47 M100.13 36.69 C112.02 22.21, 124.57 8.46, 131.62 0.47 M105.77 36.3 C117.42 20.8, 130.21 8.82, 136.61 0.83 M105.77 36.3 C113.3 28.58, 120.09 18.85, 136.61 0.83 M110.76 36.66 C124.41 22.16, 136.84 6.17, 142.25 0.43 M110.76 36.66 C122.06 24.84, 132.7 12.79, 142.25 0.43 M116.4 36.26 C128.23 24.41, 137.74 10.51, 147.24 0.79 M116.4 36.26 C125.58 26.38, 134.08 16.96, 147.24 0.79 M121.39 36.62 C130.93 27.87, 138.26 15.67, 152.88 0.4 M121.39 36.62 C131.04 24.18, 142.41 11.31, 152.88 0.4 M127.03 36.23 C139.77 24.74, 147.13 9.04, 157.87 0.76 M127.03 36.23 C137.38 23.38, 147.71 11.81, 157.87 0.76 M132.02 36.59 C145.61 24.13, 154 8.88, 163.51 0.36 M132.02 36.59 C144.63 21.31, 156.31 7.07, 163.51 0.36 M137.66 36.19 C149.61 24.73, 161.21 12.47, 168.5 0.72 M137.66 36.19 C145.23 27.08, 153.74 16.23, 168.5 0.72 M142.65 36.55 C155.71 23.64, 166.25 7.54, 174.14 0.33 M142.65 36.55 C153.54 23.39, 165.94 9.81, 174.14 0.33 M148.29 36.16 C158.46 27.22, 165.01 17.94, 179.13 0.69 M148.29 36.16 C159.47 23.4, 171.7 10.5, 179.13 0.69 M153.28 36.52 C162.56 24.65, 172.29 16.14, 184.12 1.05 M153.28 36.52 C163.7 25.86, 173.26 13.57, 184.12 1.05 M158.92 36.12 C167.87 28.15, 172.83 18.22, 189.76 0.65 M158.92 36.12 C167.03 26.21, 174.72 16.91, 189.76 0.65 M163.91 36.48 C169.72 28.26, 176.12 21.02, 194.75 1.01 M163.91 36.48 C170.79 29.01, 178.53 21.07, 194.75 1.01 M169.55 36.09 C180.62 23.99, 195.29 7.75, 200.39 0.62 M169.55 36.09 C181.71 22.65, 194.1 7.88, 200.39 0.62 M174.54 36.45 C183.84 28.32, 188.67 17.54, 205.38 0.98 M174.54 36.45 C180.39 29.22, 188.49 21.79, 205.38 0.98 M180.18 36.06 C186.26 28.07, 193.5 20.71, 211.02 0.58 M180.18 36.06 C191.15 23.71, 201.8 10.81, 211.02 0.58 M185.17 36.42 C196.33 23.22, 207.5 8.27, 216.01 0.94 M185.17 36.42 C193.45 26.82, 203.43 15.5, 216.01 0.94 M190.81 36.02 C199.15 30.12, 203.3 21.44, 221.65 0.55 M190.81 36.02 C201.67 22.9, 213.6 9.57, 221.65 0.55 M195.8 36.38 C201.07 27.73, 209.14 21.54, 227.29 0.16 M195.8 36.38 C204.06 26.28, 213.93 15.91, 227.29 0.16 M201.44 35.99 C211.48 27.46, 217.94 16.89, 231.62 1.27 M201.44 35.99 C208.19 26.78, 216.89 18.25, 231.62 1.27 M206.43 36.35 C217.08 22.84, 228.17 10.12, 234.64 3.89 M206.43 36.35 C214.25 26.36, 223.21 17.19, 234.64 3.89 M211.42 36.71 C219.57 28.09, 225.39 22.46, 237.66 6.52 M211.42 36.71 C220.76 25.53, 230.38 15.52, 237.66 6.52 M217.06 36.31 C223.02 29.07, 231.78 18.84, 237.4 12.92 M217.06 36.31 C225.23 26.4, 232.94 16.93, 237.4 12.92 M222.05 36.67 C225.91 33.39, 228.19 29.44, 237.79 18.56 M222.05 36.67 C225.28 32.95, 229.65 28.4, 237.79 18.56 M228.35 35.52 C229.64 32.17, 231.6 29.86, 236.22 26.47 M228.35 35.52 C231.5 32.8, 233.43 28.62, 236.22 26.47" stroke="#ffec99" stroke-width="0.5" fill="none"></path><path d="M8.75 0 C81.14 1.96, 154.75 -0.06, 227.3 0 M8.75 0 C62.11 -0.52, 116.67 -0.62, 227.3 0 M227.3 0 C233 1.26, 238.05 1.81, 236.05 8.75 M227.3 0 C234.65 0.19, 234.12 5.21, 236.05 8.75 M236.05 8.75 C235.56 11.33, 237.02 16.02, 236.05 26.25 M236.05 8.75 C235.47 11.66, 235.69 16.25, 236.05 26.25 M236.05 26.25 C234.48 30.66, 231.74 35.29, 227.3 35 M236.05 26.25 C235.62 31.04, 234.95 34.35, 227.3 35 M227.3 35 C145.91 33.95, 67.31 34.98, 8.75 35 M227.3 35 C176.09 36.07, 126.13 35.65, 8.75 35 M8.75 35 C1.77 35.19, -0.87 32.59, 0 26.25 M8.75 35 C2.92 33.82, 1.45 32.64, 0 26.25 M0 26.25 C-0.57 19.02, 0.46 13.03, 0 8.75 M0 26.25 C0.18 21.91, 0.01 17.26, 0 8.75 M0 8.75 C0.67 1.3, 4.78 0.97, 8.75 0 M0 8.75 C-2.03 1.36, 2.13 -0.3, 8.75 0" stroke="#1e1e1e" stroke-width="1" fill="none"></path></g><g transform="translate(16.111111111111143 1178.9623092722054) rotate(0 72.659912109375 12.5)"><text x="0" y="17.52" font-family="Virgil, Segoe UI Emoji" font-size="20px" fill="#1e1e1e" text-anchor="start" style="white-space: pre;" direction="ltr" dominant-baseline="alphabetic">GET /cid/baf..</text></g><g stroke-linecap="round" transform="translate(317.79296175685647 1170.3271945293623) rotate(0 203.6818762184629 205)"><path d="M7.86 8.16 C7.86 8.16, 7.86 8.16, 7.86 8.16 M7.86 8.16 C7.86 8.16, 7.86 8.16, 7.86 8.16 M2.35 20.59 C7.51 15.38, 13.59 5.8, 18.1 2.48 M2.35 20.59 C6.43 15.43, 9.48 11.05, 18.1 2.48 M1.43 27.75 C5.94 21.32, 12.85 13.66, 24.4 1.33 M1.43 27.75 C9.1 18.71, 16.08 9.04, 24.4 1.33 M0.52 34.9 C8.78 25.46, 17.72 15.78, 30.7 0.18 M0.52 34.9 C9.87 23.25, 19.62 13.37, 30.7 0.18 M0.26 41.3 C9.97 28.44, 22.68 15.21, 36.34 -0.21 M0.26 41.3 C8.46 30.06, 18.75 20.59, 36.34 -0.21 M-0.01 47.7 C11.42 34.1, 22.07 23.75, 41.33 0.15 M-0.01 47.7 C13.8 32.27, 26.66 16.14, 41.33 0.15 M0.39 53.34 C17.84 35.67, 30.47 20.2, 46.97 -0.25 M0.39 53.34 C16.8 33.89, 33.9 14.86, 46.97 -0.25 M0.13 59.74 C15.04 38.87, 32.61 22.39, 51.96 0.11 M0.13 59.74 C19.83 37.4, 39.28 13.5, 51.96 0.11 M0.52 65.38 C19.59 43.39, 43.14 17.84, 57.6 -0.28 M0.52 65.38 C16.6 46.17, 32.72 28.51, 57.6 -0.28 M0.26 71.78 C22.03 45.12, 46.39 17.15, 62.59 0.08 M0.26 71.78 C20.09 49.86, 37.38 29.17, 62.59 0.08 M0 78.17 C26.91 46.63, 52.62 17.56, 67.57 0.44 M0 78.17 C16.16 58.85, 33.27 38.87, 67.57 0.44 M0.39 83.82 C19.96 61.26, 37.53 42, 73.22 0.04 M0.39 83.82 C26.08 54.45, 52.19 24.75, 73.22 0.04 M0.13 90.22 C28.03 60.19, 53.45 26.86, 78.2 0.41 M0.13 90.22 C24.43 62.01, 50.08 32.49, 78.2 0.41 M0.53 95.86 C20.8 75.18, 39.12 51.4, 83.85 0.01 M0.53 95.86 C31.13 62.15, 60.82 28.16, 83.85 0.01 M0.26 102.26 C21.48 76.06, 44.8 51.31, 88.83 0.37 M0.26 102.26 C21.9 79.16, 40.94 55.58, 88.83 0.37 M0 108.65 C30.33 75.56, 62.15 38.42, 94.48 -0.02 M0 108.65 C29.88 71.23, 61.28 36.86, 94.48 -0.02 M0.4 114.3 C32.36 77.49, 65.35 39.83, 99.46 0.34 M0.4 114.3 C29.93 80.1, 58.8 47.17, 99.46 0.34 M0.14 120.69 C36.08 77.23, 75.46 36.75, 105.11 -0.06 M0.14 120.69 C26.41 88.77, 54.78 58.25, 105.11 -0.06 M0.53 126.34 C29.48 91.23, 59.64 57.71, 110.09 0.3 M0.53 126.34 C36.79 85.84, 72.16 45.41, 110.09 0.3 M0.27 132.74 C38.4 85.48, 79.88 41.84, 115.74 -0.09 M0.27 132.74 C41.52 85.63, 83.63 37.05, 115.74 -0.09 M0.01 139.13 C45.94 85.16, 96.18 26.87, 120.72 0.27 M0.01 139.13 C36.84 96.64, 73.45 55.68, 120.72 0.27 M0.4 144.78 C36.93 101.13, 76.81 58.71, 126.37 -0.13 M0.4 144.78 C46.22 89.52, 94.04 36.7, 126.37 -0.13 M0.14 151.17 C36.08 110.42, 72.44 68.97, 131.35 0.23 M0.14 151.17 C41.78 105.18, 82.24 58.43, 131.35 0.23 M0.54 156.82 C55.17 95.84, 108.71 34.96, 137 -0.16 M0.54 156.82 C38.73 112.82, 76.41 70.83, 137 -0.16 M0.27 163.22 C43.85 114.86, 83.57 68.26, 141.98 0.2 M0.27 163.22 C30.63 129.2, 60.45 94.18, 141.98 0.2 M0.01 169.61 C34.04 130.16, 69 89.29, 147.63 -0.2 M0.01 169.61 C59.63 103.43, 116.3 37.3, 147.63 -0.2 M0.41 175.26 C45.15 125.25, 90.64 74.47, 152.61 0.16 M0.41 175.26 C54.64 111.03, 109.57 48.09, 152.61 0.16 M0.15 181.65 C58.81 114.03, 115.92 48.57, 158.26 -0.23 M0.15 181.65 C43.11 130.51, 87.49 81, 158.26 -0.23 M0.54 187.3 C57.63 125.19, 112.29 57.32, 163.24 0.13 M0.54 187.3 C47.97 135.33, 94.16 82, 163.24 0.13 M0.28 193.69 C65.25 123.21, 127.85 50.2, 168.89 -0.27 M0.28 193.69 C38.3 151.78, 75.77 108.94, 168.89 -0.27 M0.02 200.09 C69.97 122.8, 135.88 46.04, 173.87 0.09 M0.02 200.09 C37.6 159.6, 73.99 118.26, 173.87 0.09 M0.41 205.74 C65.96 128.75, 132.77 49.18, 178.86 0.45 M0.41 205.74 C64.69 133.62, 126.19 62.4, 178.86 0.45 M0.15 212.13 C64.94 141.63, 128.18 67.62, 184.5 0.06 M0.15 212.13 C61.4 140.17, 123.99 69.53, 184.5 0.06 M0.55 217.78 C65.7 143.65, 127.23 69.47, 189.49 0.42 M0.55 217.78 C62.26 144.99, 124.81 73.57, 189.49 0.42 M0.28 224.17 C45.59 171.48, 89.47 119.51, 195.13 0.03 M0.28 224.17 C71.34 142.28, 143.45 60.84, 195.13 0.03 M0.02 230.57 C73.1 146.42, 146.98 64, 200.12 0.39 M0.02 230.57 C50.99 172.72, 102.06 114.13, 200.12 0.39 M0.42 236.22 C56.14 172.93, 113.29 108.4, 205.76 -0.01 M0.42 236.22 C76.05 147.33, 151.19 59.27, 205.76 -0.01 M0.16 242.61 C81.18 149.48, 162.12 56.77, 210.75 0.35 M0.16 242.61 C74.53 156.27, 150.32 69.89, 210.75 0.35 M-0.11 249.01 C75.81 161.9, 153.01 74.46, 216.39 -0.04 M-0.11 249.01 C66.83 169.79, 135.96 89.53, 216.39 -0.04 M0.29 254.65 C65.09 181.51, 128.07 107.84, 221.38 0.32 M0.29 254.65 C70.5 175.61, 139.78 94.74, 221.38 0.32 M0.03 261.05 C82.48 168.3, 163.02 73.93, 227.02 -0.08 M0.03 261.05 C80.6 167.35, 163.01 73.67, 227.02 -0.08 M0.42 266.69 C92.92 162, 181.46 56.46, 232.01 0.28 M0.42 266.69 C77.24 178.24, 153.76 90.74, 232.01 0.28 M0.16 273.09 C63.99 198.94, 127.58 125.18, 237.65 -0.11 M0.16 273.09 C79.17 181.19, 157.77 91.27, 237.65 -0.11 M-0.1 279.49 C84.71 181.6, 170.31 83.25, 242.64 0.25 M-0.1 279.49 C57.82 213.23, 115.43 146.29, 242.64 0.25 M0.29 285.13 C61.19 214.81, 122.29 144.89, 248.28 -0.15 M0.29 285.13 C63.92 211.43, 127.64 139.1, 248.28 -0.15 M0.03 291.53 C66.51 214.72, 132.41 139.16, 253.27 0.21 M0.03 291.53 C56.83 225.43, 114.6 157.94, 253.27 0.21 M0.43 297.17 C90.48 194.95, 179.89 92.29, 258.91 -0.18 M0.43 297.17 C62.82 226.39, 125.67 154.52, 258.91 -0.18 M0.17 303.57 C95.36 192.96, 191.21 84.11, 263.9 0.18 M0.17 303.57 C80.38 209.85, 162.08 115.5, 263.9 0.18 M-0.1 309.97 C58.58 246.66, 115.82 181.25, 269.54 -0.22 M-0.1 309.97 C103.99 192.77, 207.1 73.56, 269.54 -0.22 M0.3 315.61 C88.08 214.12, 176.76 112, 274.53 0.14 M0.3 315.61 C65.71 241.49, 129.89 167.23, 274.53 0.14 M0.04 322.01 C102.81 203.47, 207.49 83.01, 280.17 -0.25 M0.04 322.01 C72.26 237.69, 145.28 153.35, 280.17 -0.25 M0.43 327.65 C101.21 210.55, 203.88 91.95, 285.16 0.11 M0.43 327.65 C110.78 201.91, 220.01 76.47, 285.16 0.11 M0.17 334.05 C102.59 218.72, 204.39 101.6, 290.8 -0.28 M0.17 334.05 C70.71 253.34, 139.6 173.29, 290.8 -0.28 M-0.09 340.45 C97.31 230.52, 194.26 120.18, 295.79 0.08 M-0.09 340.45 C82.76 242.92, 165.79 146.37, 295.79 0.08 M0.3 346.09 C107.05 223.06, 213.1 100.69, 300.78 0.44 M0.3 346.09 C113.2 215.73, 225.5 86.43, 300.78 0.44 M0.04 352.49 C64.66 276.04, 129.55 199.51, 306.42 0.04 M0.04 352.49 C88.08 250.74, 176.43 148.62, 306.42 0.04 M0.44 358.13 C119.94 220.44, 239 85.33, 311.41 0.4 M0.44 358.13 C94.13 249.58, 188.54 141.81, 311.41 0.4 M0.18 364.53 C81.32 271.79, 163.22 178.85, 317.05 0.01 M0.18 364.53 C94.97 256.66, 188.57 149, 317.05 0.01 M-0.09 370.93 C103.49 251.52, 206.65 131.27, 322.04 0.37 M-0.09 370.93 C111.85 240.64, 224.23 111.95, 322.04 0.37 M0.31 376.57 C69.65 296.1, 141.3 215.34, 327.68 -0.03 M0.31 376.57 C75.52 289, 152.31 201.61, 327.68 -0.03 M0.7 382.21 C86.78 284.17, 170.59 185.66, 332.67 0.33 M0.7 382.21 C74.41 299.32, 147.57 214.86, 332.67 0.33 M1.75 387.1 C107.64 267.35, 211.49 148.78, 338.31 -0.06 M1.75 387.1 C124 244.77, 247.33 102.99, 338.31 -0.06 M2.15 392.75 C119.12 256.49, 236.9 121.86, 343.3 0.3 M2.15 392.75 C108.4 267.49, 216.26 142.83, 343.3 0.3 M4.51 396.13 C100.34 286.35, 197.2 174.99, 348.94 -0.1 M4.51 396.13 C139.71 238.24, 277.15 80.63, 348.94 -0.1 M6.87 399.5 C126.56 261.26, 246.66 124.55, 353.93 0.26 M6.87 399.5 C83.99 312.1, 159.34 225.4, 353.93 0.26 M9.24 402.88 C122.04 274.43, 233.1 146.43, 359.57 -0.13 M9.24 402.88 C138.15 255.16, 265.6 108.37, 359.57 -0.13 M12.91 404.75 C117.32 282.31, 221.96 162.42, 364.56 0.23 M12.91 404.75 C151.73 246.04, 290.35 86.92, 364.56 0.23 M15.93 407.38 C140.87 265.83, 263.28 124.43, 370.2 -0.17 M15.93 407.38 C134.89 270.09, 254.27 132.13, 370.2 -0.17 M20.26 408.49 C108.19 309.56, 193.96 210.22, 375.19 0.19 M20.26 408.49 C126.41 286.93, 230.97 166.32, 375.19 0.19 M25.25 408.85 C142.63 274.05, 261.86 137.08, 379.52 1.31 M25.25 408.85 C141.07 273.37, 257.96 139.29, 379.52 1.31 M29.58 409.97 C136.41 287.67, 241.68 165.25, 384.51 1.67 M29.58 409.97 C122.62 300.78, 216.48 192.27, 384.51 1.67 M34.57 410.33 C171.16 254.25, 306.76 97.4, 389.49 2.03 M34.57 410.33 C170.21 253.53, 306.87 96.97, 389.49 2.03 M40.21 409.93 C171.76 258.11, 304.26 105.18, 393.17 3.9 M40.21 409.93 C120.96 316.62, 201.63 224.61, 393.17 3.9 M45.2 410.29 C129.23 313.71, 213.89 217.5, 396.19 6.52 M45.2 410.29 C145.42 296.28, 245.25 182.01, 396.19 6.52 M50.84 409.9 C145.25 299.2, 241.89 189.05, 399.86 8.39 M50.84 409.9 C189.94 251.54, 327.73 92.88, 399.86 8.39 M55.83 410.26 C186.61 259.18, 318.86 107.08, 402.23 11.77 M55.83 410.26 C142.17 311.91, 227.3 213.73, 402.23 11.77 M61.47 409.86 C193.97 257.68, 325.91 104.94, 403.93 15.9 M61.47 409.86 C185.21 267.31, 310.37 123.73, 403.93 15.9 M66.46 410.22 C179.02 280.86, 290.87 150.67, 405.64 20.04 M66.46 410.22 C141.72 325.62, 217.01 239.9, 405.64 20.04 M72.1 409.83 C201.77 258.65, 333.51 108.76, 406.69 24.93 M72.1 409.83 C143.92 324.91, 217.21 240.73, 406.69 24.93 M77.09 410.19 C192.74 278.03, 310.58 143.57, 407.74 29.82 M77.09 410.19 C209.71 257.87, 341.63 106.34, 407.74 29.82 M82.73 409.79 C196.88 278, 311.7 145.2, 408.14 35.46 M82.73 409.79 C157.68 322.64, 232.09 236.63, 408.14 35.46 M87.72 410.15 C197.46 282.75, 307.88 157.42, 407.87 41.86 M87.72 410.15 C185.17 297.6, 282.8 184.26, 407.87 41.86 M93.36 409.76 C165.16 325.84, 236.49 241.63, 408.27 47.5 M93.36 409.76 C203.02 282.26, 313.42 155.22, 408.27 47.5 M98.35 410.12 C204.34 287.63, 308.44 167.27, 408.01 53.9 M98.35 410.12 C191.51 301.28, 285.72 193.15, 408.01 53.9 M103.99 409.73 C214.67 281.1, 325.75 153.96, 407.75 60.29 M103.99 409.73 C203.44 297.37, 301.81 184.09, 407.75 60.29 M108.98 410.09 C175.66 333.67, 243.13 255.43, 408.14 65.94 M108.98 410.09 C194.09 310.45, 279.41 212.05, 408.14 65.94 M113.96 410.45 C230.73 274.11, 348.51 140.07, 407.88 72.34 M113.96 410.45 C226.39 281.73, 337.54 154.61, 407.88 72.34 M119.61 410.05 C180.23 341.26, 240.13 270.42, 408.27 77.98 M119.61 410.05 C231.1 281.13, 343.23 152.12, 408.27 77.98 M124.59 410.41 C225.09 295.67, 324.59 180.02, 408.01 84.38 M124.59 410.41 C217.44 304.55, 308.73 199.41, 408.01 84.38 M130.24 410.02 C229.68 298.09, 327.92 184.42, 407.75 90.77 M130.24 410.02 C206.12 321.87, 284.26 232.39, 407.75 90.77 M135.22 410.38 C227.38 303.17, 318.37 198.59, 408.14 96.42 M135.22 410.38 C206.63 329.04, 277.33 246.45, 408.14 96.42 M140.87 409.98 C207.12 332.94, 276.48 253.51, 407.88 102.82 M140.87 409.98 C211.32 328.06, 281.34 247.62, 407.88 102.82 M145.85 410.34 C210.96 332.81, 278.46 255.82, 408.28 108.46 M145.85 410.34 C216.46 327.48, 288.58 244.64, 408.28 108.46 M151.5 409.95 C240.68 308.04, 326.15 208.73, 408.02 114.86 M151.5 409.95 C250.04 298.08, 347.11 186.26, 408.02 114.86 M156.48 410.31 C231.59 323.33, 306.46 235.9, 407.75 121.25 M156.48 410.31 C242.52 313.72, 326.75 215.54, 407.75 121.25 M162.13 409.91 C256.22 300.1, 353.07 191.77, 408.15 126.9 M162.13 409.91 C238.33 323.4, 312.31 236.96, 408.15 126.9 M167.11 410.27 C229.67 339.96, 289.27 272.16, 407.89 133.29 M167.11 410.27 C216.75 352.39, 265.98 295.71, 407.89 133.29 M172.76 409.88 C223.2 352.62, 270.7 297.93, 408.28 138.94 M172.76 409.88 C232.43 340.86, 290.95 273.39, 408.28 138.94 M177.74 410.24 C265.42 310.09, 351.07 212.47, 408.02 145.34 M177.74 410.24 C251.13 324.52, 325.41 238.52, 408.02 145.34 M183.39 409.84 C264.03 320.02, 341.49 230.48, 407.76 151.73 M183.39 409.84 C243 341.09, 304.07 271.19, 407.76 151.73 M188.37 410.2 C263.83 325.18, 335.9 239.92, 408.15 157.38 M188.37 410.2 C258 329.72, 326.77 250.65, 408.15 157.38 M194.02 409.81 C238.43 359.31, 282.37 309.47, 407.89 163.77 M194.02 409.81 C265.99 324.28, 339.64 239.79, 407.89 163.77 M199 410.17 C256.29 347.91, 311.57 282.14, 408.29 169.42 M199 410.17 C263.05 337.71, 324.63 266.74, 408.29 169.42 M204.65 409.77 C266.51 336.98, 327.87 265.48, 408.03 175.81 M204.65 409.77 C263.12 341.65, 321.73 273.01, 408.03 175.81 M209.63 410.13 C274.8 337.91, 338.73 262.2, 407.76 182.21 M209.63 410.13 C283.21 324.46, 356.79 239.42, 407.76 182.21 M215.28 409.74 C260.21 360.3, 300.35 313.4, 408.16 187.86 M215.28 409.74 C265.81 351.23, 317.88 291.1, 408.16 187.86 M220.26 410.1 C282.55 341.97, 340.41 271.11, 407.9 194.25 M220.26 410.1 C282.12 337.48, 344.87 265.23, 407.9 194.25 M225.25 410.46 C270.78 357.62, 315.52 306.64, 408.29 199.9 M225.25 410.46 C273.65 354.77, 324.33 297.36, 408.29 199.9 M230.89 410.07 C277.37 353.76, 327.4 299.96, 408.03 206.29 M230.89 410.07 C292.44 341.72, 352.82 271.88, 408.03 206.29 M235.88 410.43 C296.16 344.3, 354.9 274.48, 407.77 212.69 M235.88 410.43 C274.52 366.82, 313.66 321.2, 407.77 212.69 M241.53 410.03 C288.17 356.11, 335.28 302.17, 408.16 218.34 M241.53 410.03 C284 359.98, 326.4 310.7, 408.16 218.34 M246.51 410.39 C310.42 338.67, 373.29 265.59, 407.9 224.73 M246.51 410.39 C294.86 355.29, 343.47 300.49, 407.9 224.73 M252.16 410 C288.49 364, 329.63 321.03, 408.3 230.38 M252.16 410 C306.3 350.28, 356.99 289.06, 408.3 230.38 M257.14 410.36 C305.2 354.8, 354 299.4, 408.04 236.77 M257.14 410.36 C313.83 343.99, 371.45 277.6, 408.04 236.77 M262.79 409.96 C314.61 351.8, 366.72 295.55, 407.77 243.17 M262.79 409.96 C303.8 362.24, 347.03 312.72, 407.77 243.17 M267.77 410.32 C322.14 347.7, 375.37 286.53, 408.17 248.81 M267.77 410.32 C299.49 374.91, 330.03 339.79, 408.17 248.81 M273.42 409.93 C319.62 355.1, 367.71 300.06, 407.91 255.21 M273.42 409.93 C308.05 369.52, 342.83 329.96, 407.91 255.21 M278.4 410.29 C317.49 365.74, 353.89 323.38, 408.3 260.86 M278.4 410.29 C315.31 367.15, 353.73 323.92, 408.3 260.86 M284.05 409.89 C326.56 365.03, 366.33 318.93, 408.04 267.25 M284.05 409.89 C311.39 377.71, 337.95 347.6, 408.04 267.25 M289.03 410.25 C319.67 370.3, 353.06 333.54, 407.78 273.65 M289.03 410.25 C322.01 372.4, 354.71 335.39, 407.78 273.65 M294.68 409.86 C331.38 369.42, 362.68 329.56, 408.17 279.29 M294.68 409.86 C338.75 360.79, 381.55 310.94, 408.17 279.29 M299.66 410.22 C326.58 381.03, 349.43 350.51, 407.91 285.69 M299.66 410.22 C326.88 379.23, 352.34 348.46, 407.91 285.69 M305.31 409.82 C332.45 380.88, 354.92 352.06, 408.31 291.34 M305.31 409.82 C346.1 362.54, 388.7 315.55, 408.31 291.34 M310.29 410.18 C347.95 369.66, 386.18 327.49, 408.05 297.73 M310.29 410.18 C335.21 381.35, 360.67 351.69, 408.05 297.73 M315.94 409.79 C339.83 382.41, 361.74 357.09, 407.78 304.13 M315.94 409.79 C349.38 372.96, 380.98 335.23, 407.78 304.13 M320.92 410.15 C354.49 374.4, 386.44 337.87, 408.18 309.77 M320.92 410.15 C351.08 374.22, 383.31 337.98, 408.18 309.77 M326.57 409.76 C354.55 376.65, 383.78 342.06, 407.92 316.17 M326.57 409.76 C356.56 374.63, 386.72 338.86, 407.92 316.17 M331.55 410.12 C363.15 373.18, 392.29 341.65, 408.31 321.81 M331.55 410.12 C359.56 378.96, 389.08 345.58, 408.31 321.81 M336.54 410.48 C362.18 382.2, 387.43 349.51, 408.05 328.21 M336.54 410.48 C350.44 394.8, 366.42 378.07, 408.05 328.21 M342.18 410.08 C361.27 385.41, 380.77 364.66, 407.79 334.61 M342.18 410.08 C360.82 387.04, 380.44 366.33, 407.79 334.61 M347.17 410.44 C369.91 385.29, 390.77 359.8, 408.18 340.25 M347.17 410.44 C362.26 392.88, 377.09 374.71, 408.18 340.25 M352.81 410.05 C367.65 394.53, 379.75 377.42, 407.92 346.65 M352.81 410.05 C370.95 387.87, 391.54 366.13, 407.92 346.65 M357.8 410.41 C370.1 394.77, 380.19 382.77, 408.32 352.29 M357.8 410.41 C375.34 390.64, 391.49 372.49, 408.32 352.29 M363.44 410.01 C375.38 396.85, 388.99 379.99, 408.06 358.69 M363.44 410.01 C375.79 395.15, 388.92 379.1, 408.06 358.69 M368.43 410.37 C381.34 395.36, 397.35 379.59, 407.79 365.09 M368.43 410.37 C381.13 395.24, 393.22 382.09, 407.79 365.09 M374.07 409.98 C387.78 397.02, 397.05 382.61, 408.19 370.73 M374.07 409.98 C385.06 397.28, 395.73 383.6, 408.19 370.73 M379.72 409.58 C388.52 398.77, 396.15 390.24, 407.93 377.13 M379.72 409.58 C388.69 399.94, 397.57 388.69, 407.93 377.13 M386.02 408.43 C389.9 403.66, 396.74 397.35, 407.01 384.28 M386.02 408.43 C393.42 399.36, 402.13 388.89, 407.01 384.28 M392.97 406.53 C395.42 401.69, 400.1 396.56, 405.44 392.19 M392.97 406.53 C396.43 402.07, 398.12 399.55, 405.44 392.19" stroke="#ffec99" stroke-width="0.5" fill="none"></path><path d="M32 0 C159.92 1.6, 289.94 0.2, 375.36 0 M32 0 C152.95 -0.5, 274.65 -1.29, 375.36 0 M375.36 0 C398.01 0.17, 405.68 12.66, 407.36 32 M375.36 0 C394.52 -2.16, 406.15 10.24, 407.36 32 M407.36 32 C407.58 115.77, 408.57 198.87, 407.36 378 M407.36 32 C405.93 108.64, 405.99 186.31, 407.36 378 M407.36 378 C406.99 398.43, 398.28 409.43, 375.36 410 M407.36 378 C408.96 400.96, 395.91 409.16, 375.36 410 M375.36 410 C279.39 411.22, 185.93 409.8, 32 410 M375.36 410 C269.73 409.09, 164.56 409.2, 32 410 M32 410 C10.67 408.97, 1.26 399.82, 0 378 M32 410 C12.61 408.22, -0.46 398.4, 0 378 M0 378 C-0.76 283.04, -0.25 190.17, 0 32 M0 378 C0.55 254.97, 0.94 133.32, 0 32 M0 32 C-1.76 9.32, 9.98 -0.26, 32 0 M0 32 C2.08 10.52, 10.85 0.46, 32 0" stroke="#1e1e1e" stroke-width="1" fill="none"></path></g><g transform="translate(322.79296175685647 1175.3271945293623) rotate(0 192.2897491455078 200)"><text x="0" y="17.52" font-family="Virgil, Segoe UI Emoji" font-size="20px" fill="#1e1e1e" text-anchor="start" style="white-space: pre;" direction="ltr" dominant-baseline="alphabetic">{</text><text x="0" y="42.519999999999996" font-family="Virgil, Segoe UI Emoji" font-size="20px" fill="#1e1e1e" text-anchor="start" style="white-space: pre;" direction="ltr" dominant-baseline="alphabetic">  "routes": [</text><text x="0" y="67.52" font-family="Virgil, Segoe UI Emoji" font-size="20px" fill="#1e1e1e" text-anchor="start" style="white-space: pre;" direction="ltr" dominant-baseline="alphabetic">    {</text><text x="0" y="92.52" font-family="Virgil, Segoe UI Emoji" font-size="20px" fill="#1e1e1e" text-anchor="start" style="white-space: pre;" direction="ltr" dominant-baseline="alphabetic">      "type": "ipfs",</text><text x="0" y="117.52" font-family="Virgil, Segoe UI Emoji" font-size="20px" fill="#1e1e1e" text-anchor="start" style="white-space: pre;" direction="ltr" dominant-baseline="alphabetic">      "method": {</text><text x="0" y="142.52" font-family="Virgil, Segoe UI Emoji" font-size="20px" fill="#1e1e1e" text-anchor="start" style="white-space: pre;" direction="ltr" dominant-baseline="alphabetic">        "cid": "baf..."</text><text x="0" y="167.52" font-family="Virgil, Segoe UI Emoji" font-size="20px" fill="#1e1e1e" text-anchor="start" style="white-space: pre;" direction="ltr" dominant-baseline="alphabetic">      }</text><text x="0" y="192.52" font-family="Virgil, Segoe UI Emoji" font-size="20px" fill="#1e1e1e" text-anchor="start" style="white-space: pre;" direction="ltr" dominant-baseline="alphabetic">    },</text><text x="0" y="217.52" font-family="Virgil, Segoe UI Emoji" font-size="20px" fill="#1e1e1e" text-anchor="start" style="white-space: pre;" direction="ltr" dominant-baseline="alphabetic">    {</text><text x="0" y="242.52" font-family="Virgil, Segoe UI Emoji" font-size="20px" fill="#1e1e1e" text-anchor="start" style="white-space: pre;" direction="ltr" dominant-baseline="alphabetic">      "type": "url",</text><text x="0" y="267.52" font-family="Virgil, Segoe UI Emoji" font-size="20px" fill="#1e1e1e" text-anchor="start" style="white-space: pre;" direction="ltr" dominant-baseline="alphabetic">      "method": {</text><text x="0" y="292.52" font-family="Virgil, Segoe UI Emoji" font-size="20px" fill="#1e1e1e" text-anchor="start" style="white-space: pre;" direction="ltr" dominant-baseline="alphabetic">        "url": "https://ipfs.io/ipfs/baf..."</text><text x="0" y="317.52" font-family="Virgil, Segoe UI Emoji" font-size="20px" fill="#1e1e1e" text-anchor="start" style="white-space: pre;" direction="ltr" dominant-baseline="alphabetic">      }</text><text x="0" y="342.52" font-family="Virgil, Segoe UI Emoji" font-size="20px" fill="#1e1e1e" text-anchor="start" style="white-space: pre;" direction="ltr" dominant-baseline="alphabetic">    }</text><text x="0" y="367.52" font-family="Virgil, Segoe UI Emoji" font-size="20px" fill="#1e1e1e" text-anchor="start" style="white-space: pre;" direction="ltr" dominant-baseline="alphabetic">  ]</text><text x="0" y="392.52" font-family="Virgil, Segoe UI Emoji" font-size="20px" fill="#1e1e1e" text-anchor="start" style="white-space: pre;" direction="ltr" dominant-baseline="alphabetic">}</text></g></svg>